<?xml version="1.0" standalone="no"?>
<!DOCTYPE svg PUBLIC "-//W3C//DTD SVG 1.1//EN" "http://www.w3.org/Graphics/SVG/1.1/DTD/svg11.dtd" >
<!--
2013-9-30: Created.
-->
<svg>
<metadata>
Created by iconfont
</metadata>
<defs>

<font id="iconfont" horiz-adv-x="1024" >
  <font-face
    font-family="iconfont"
    font-weight="500"
    font-stretch="normal"
    units-per-em="1024"
    ascent="896"
    descent="-128"
  />
    <missing-glyph />
    
    <glyph glyph-name="xinxi" unicode="&#58880;" d="M512 841.728q95.232 0 178.688-36.352t145.408-98.304 98.304-145.92 36.352-179.2-36.352-178.688-98.304-145.408-145.408-98.304-178.688-36.352-179.2 36.352-145.92 98.304-98.304 145.408-36.352 178.688 36.352 179.2 98.304 145.92 145.92 98.304 179.2 36.352zM567.296 445.44q0 24.576-15.872 41.472t-39.424 16.896-39.936-16.896-16.384-41.472l0-343.04q0-24.576 16.384-39.424t39.936-14.848 39.936 15.36 16.384 39.936zM512 572.416q29.696 0 50.688 20.992t20.992 50.688-20.992 50.688-50.688 20.992-51.2-20.992-21.504-50.688 21.504-50.688 51.2-20.992z"  horiz-adv-x="1024" />

    
    <glyph glyph-name="duigoudaibiankuang" unicode="&#59019;" d="M796.999314 611.035429 420.392229 234.499657 227.000686 427.927771l-51.713829-51.713829L394.536229 156.928c7.1424-7.1424 16.4992-10.7136 25.857829-10.7136s18.7136 3.5712 25.857829 10.7136l402.464914 402.3936L796.999314 611.035429zM512 896C229.215086 896 0 666.784914 0 384s229.215086-512 512-512 512 229.215086 512 512S794.784914 896 512 896zM512-91.428571C249.857829-91.428571 36.571429 121.857829 36.571429 384S249.857829 859.428571 512 859.428571s475.428571-213.2864 475.428571-475.428571S774.142171-91.428571 512-91.428571z"  horiz-adv-x="1024" />

    
    <glyph glyph-name="daifahuo" unicode="&#58881;" d="M805.502126 712.393285 219.370755 712.393285c-41.919738 0-75.892481-33.972742-75.892481-75.891458l0-501.798661c0-41.921785 33.971719-75.892481 75.892481-75.892481l586.131371 0c41.920762 0 75.891458 33.970696 75.891458 75.892481l0 84.291778c-0.063445 10.994402-8.975419 19.891026-19.971867 19.891026-10.993378 0-19.909445-8.895601-19.97289-19.891026l0-0.040932c0-0.040932 0-0.040932 0-0.084934 0 0 0 0 0-0.039909l0-80.135108c0-22.067598-17.889439-39.940664-39.939641-39.940664L440.621834 98.753397c-0.021489 0-0.021489 0-0.042979 0L223.364719 98.753397c-22.051225 0-39.943734 17.873066-39.943734 39.940664L183.420985 450.458621l228.66391-0.329505 0.020466-172.412768c0-11.612479 9.429767-21.084201 21.083178-21.084201 3.635807 0 6.888897 1.152243 9.872858 2.799766l0.196475-0.370437 79.731926 44.308135 77.094866-46.490847c0.473791-0.329505 0.74292-0.823761 1.25662-1.112334 10.028401-5.970992 22.936385-2.63399 28.887934 7.370875 2.243087 3.829212 2.778276 7.989975 2.508123 12.106736 0.104377 0.864694 0.497327 1.605567 0.497327 2.471284l0 0.040932 0.019443 0-0.019443 172.70134 208.216205-0.329505 0-114.517173c0-0.040932 0-0.081864 0-0.081864 0-11.035334 8.936533-19.971867 19.97289-19.971867 11.036357 0 19.971867 8.93551 19.971867 19.971867 0 0 0 0.040932 0 0.081864L881.39563 636.501828C881.393583 678.421566 847.422887 712.393285 805.502126 712.393285zM183.420985 492.624976 183.420985 632.507864c0 22.072715 17.892509 39.943734 39.943734 39.943734l188.679243 0 0.030699-180.15408L183.420985 492.624976zM533.460266 346.319819l-0.229221-0.37146c-6.474458 3.78828-14.649652 4.28356-21.49557 0.12382-0.760317-0.494257-1.204431-1.194198-1.895163-1.77032l-55.568596-30.884404-0.062422 359.034143L591.02431 672.451598l0.060375-360.88735L533.460266 346.319819zM841.449849 492.296495l-208.236672 0.328481-0.022513 179.825598 168.319543 0c22.050202 0 39.939641-17.871019 39.939641-39.943734L841.449849 492.296495z"  horiz-adv-x="1024" />

    
    <glyph glyph-name="guanbi" unicode="&#58890;" d="M514.755584 745.238272c-247.428096 0-447.993856-200.563712-447.993856-447.993856 0-247.40352 200.563712-447.993856 447.993856-447.993856 247.402496 0 447.992832 200.590336 447.992832 447.993856C962.748416 544.67456 762.160128 745.238272 514.755584 745.238272zM689.961984 199.906048c10.755072-10.752 10.755072-28.177408 0-38.933504l-38.933504-38.933504c-10.756096-10.759168-28.179456-10.759168-38.933504 0l-97.337344 97.337344-97.34144-97.337344c-10.754048-10.759168-28.178432-10.759168-38.933504 0l-38.934528 38.933504c-10.755072 10.756096-10.755072 28.181504 0 38.933504l97.34144 97.339392-97.34144 97.337344c-10.755072 10.755072-10.755072 28.18048 0 38.933504l38.934528 38.933504c10.754048 10.755072 28.178432 10.755072 38.933504 0l97.34144-97.338368 97.337344 97.338368c10.754048 10.755072 28.176384 10.755072 38.933504 0l38.933504-38.933504c10.755072-10.754048 10.755072-28.179456 0-38.933504l-97.339392-97.337344L689.961984 199.906048z"  horiz-adv-x="1024" />

    
    <glyph glyph-name="tuikuan" unicode="&#58882;" d="M936.470481 464.148411c-9.006118 7.248078-22.181185 5.816472-29.404704-3.25616l-35.853579-44.924165c-1.173732 17.362436-3.472078 34.854832-7.119141 52.390207-44.728714 216.201064-255.093862 354.923522-469.839785 309.911352C179.482791 733.217566 41.648562 521.486304 86.3783 305.329243c44.729737-216.202087 255.091816-354.925568 469.861274-309.87042 78.063937 16.363689 145.169287 55.384401 197.687408 108.122533 0.194428 0.173962 0.39295 0.345877 0.587378 0.563842 0.934279 0.955768 1.257643 2.039449 2.191922 3.037173 1.541099 2.607384 2.64627 5.686513 2.64627 8.940626 0 9.54847-7.723915 17.319457-17.231453 17.319457-5.120624 0-9.592472-2.343371-12.760628-5.903453l-0.12996 0.085958c-47.680952-47.789423-108.860337-83.033112-179.697685-97.879238-194.476273-40.799218-384.982118 84.857667-425.479461 280.615119-40.518832 195.758476 84.314291 387.522987 278.791587 428.324252 194.476273 40.757263 384.982118-84.901669 425.480484-280.660144 3.124154-15.061021 5.253654-30.036084 6.509251-44.968168l-43.447535 35.114752c-9.029654 7.248078-22.181185 5.816472-29.404704-3.25616-7.251148-9.071609-5.794983-22.309098 3.212158-29.601178 0.041956-0.044002 0.041956-0.044002 0.085958-0.044002l80.06143-64.717977c0.022513 0 0.064468-0.041956 0.084934-0.041956 4.560876-3.689019 10.202363-5.121648 15.581883-4.470825 5.424546 0.563842 10.615779 3.123131 14.281261 7.724938 0.022513 0.041956 0.044002 0.086981 0.044002 0.086981l64.282049 80.646761c0.023536 0 0.023536 0 0.062422 0.044002C946.910251 443.617819 945.476599 456.855308 936.470481 464.148411zM463.635479 165.388027c0-9.981329 8.138354-18.10024 18.144242-18.10024 10.004865 0 18.123776 8.116865 18.123776 18.10024l0.107447 0L500.010945 273.076678l109.033275 0 0 0.172939c10.006911 0 18.122753 8.160867 18.122753 18.145266 0 10.025331-8.116865 18.141172-18.122753 18.141172l-109.033275 0 0 56.035224 109.054765 0 0 0.002047 0 0.173962c9.983375 0 18.10024 8.116865 18.10024 18.143219 0 10.026354-8.116865 18.144242-18.10024 18.144242L500.008898 402.034748l0 33.378202 108.101043 106.037035-0.10847 0.130983c7.487531 6.641257 8.159844 18.10024 1.51961 25.610284-6.66377 7.509021-18.122753 8.159844-25.610284 1.518586l-101.676727-100.222609L375.285269 573.527564c-7.510044 6.642281-18.969027 5.946432-25.610284-1.561565-6.640234-7.466042-5.966898-18.925025 1.51961-25.566282l-0.10847-0.130983 112.463398-109.989043 0-34.244942L354.493733 402.034748l0-0.088004c-9.983375 0-18.10024-8.115841-18.10024-18.144242 0-10.026354 8.116865-18.144242 18.10024-18.144242l0-0.086981 109.055788 0 0-56.035224L354.493733 309.536055l0-0.084934c-9.983375 0-18.122753-8.160867-18.122753-18.145266 0-10.025331 8.138354-18.141172 18.122753-18.141172l0-0.088004 109.055788 0 0-107.687628L463.635479 165.38905z"  horiz-adv-x="1024" />

    
    <glyph glyph-name="shouji" unicode="&#59064;" d="M814.545455 113.818182 232.727273 113.818182c-12.846545 0-23.272727-10.402909-23.272727-23.272727l0-23.272727c0-12.869818 10.426182-23.272727 23.272727-23.272727l581.818182 0c12.869818 0 23.272727 10.402909 23.272727 23.272727l0 23.272727C837.818182 103.415273 827.415273 113.818182 814.545455 113.818182L814.545455 113.818182zM512-2.545455c-25.693091 0-46.545455-20.852364-46.545455-46.545455s20.852364-46.545455 46.545455-46.545455 46.545455 20.852364 46.545455 46.545455S537.693091-2.545455 512-2.545455L512-2.545455zM768 742.181818c12.823273 0 23.272727-10.449455 23.272727-23.272727l0-837.818182c0-12.823273-10.449455-23.272727-23.272727-23.272727L256-142.181818c-12.823273 0-23.272727 10.449455-23.272727 23.272727L232.727273 718.909091c0 12.823273 10.449455 23.272727 23.272727 23.272727L768 742.181818M768 812 256 812C204.590545 812 162.909091 770.318545 162.909091 718.909091l0-837.818182c0-51.409455 41.681455-93.090909 93.090909-93.090909l512 0c51.409455 0 93.090909 41.681455 93.090909 93.090909L861.090909 718.909091C861.090909 770.318545 819.409455 812 768 812L768 812z"  horiz-adv-x="1024" />

    
    <glyph glyph-name="31daipingjia" unicode="&#58884;" d="M860.377432 762.785999 163.652244 762.785999c-41.643446 0-75.546603-33.903158-75.546603-75.546603l0-510.917342c0-41.643446 33.903158-75.546603 75.546603-75.546603l252.743328 0 95.618754-95.559403 95.589079 95.559403 252.774027 0c41.643446 0 75.516928 33.903158 75.516928 75.546603L935.89436 687.238372C935.89436 728.882841 902.020878 762.785999 860.377432 762.785999zM877.749078 664.016485l0-464.473567c0-22.381753-18.21178-40.593534-40.593534-40.593534L579.520813 158.949384l-67.506487-67.565838-67.536162 67.565838L186.874131 158.949384c-22.412452 0-40.624233 18.21178-40.624233 40.593534L146.249899 664.016485c0 22.412452 18.21178 40.624233 40.624233 40.624233l650.28039 0C859.537298 704.639694 877.749078 686.428937 877.749078 664.016485zM302.83519 492.250446 741.266637 492.250446c14.851243 0 26.972305 12.481266 26.972305 27.812439 0 15.361873-12.121062 27.872814-26.972305 27.872814L302.83519 547.9357c-14.851243 0-26.942629-12.510942-26.942629-27.872814C275.892561 504.731712 287.983947 492.250446 302.83519 492.250446zM741.266637 399.421224 302.83519 399.421224c-14.851243 0-26.942629-12.510942-26.942629-27.842115 0-15.331173 12.091386-27.842115 26.942629-27.842115L741.266637 343.736994c14.851243 0 26.972305 12.510942 26.972305 27.842115C768.238942 386.910283 756.11788 399.421224 741.266637 399.421224z"  horiz-adv-x="1024" />

    
    <glyph glyph-name="gerenzhongxin" unicode="&#59065;" d="M660.312309 279.328191c64.350177 47.370891 106.355548 123.384122 106.355548 209.238488 0 143.348825-116.633033 259.978103-259.988755 259.978103S246.690346 631.915505 246.690346 488.565656c0-86.900186 43.014392-163.770947 108.706178-210.989365-153.870624-60.617589-263.214348-210.381521-263.214348-385.513214 0-21.524223 17.454226-38.977733 38.97933-38.977733 21.526128 0 38.978307 17.453511 38.978307 38.977733 0 185.562253 150.969432 336.543919 336.539288 336.543919 1.60768 0 3.149866 0.209778 4.748335 0.246617 0.809468-0.056282 1.570839-0.246617 2.389518-0.246617 185.569856 0 336.537242-150.981666 336.537242-336.543919 0-21.524223 17.454226-38.977733 38.980354-38.977733 21.525105 0 38.97933 17.453511 38.97933 38.977733C928.312857 68.984532 816.674786 219.966199 660.312309 279.328191zM324.647983 488.565656c0 100.375082 81.660111 182.021613 182.030095 182.021613s182.030095-81.647555 182.030095-182.021613c0-100.356662-81.660111-182.003194-182.030095-182.003194S324.647983 388.210018 324.647983 488.565656z"  horiz-adv-x="1024" />

    
    <glyph glyph-name="xiangyou" unicode="&#59070;" d="M737.036 311.692v0.007l-397.287 397.285c-6.665 7.405-16.321 12.063-27.067 12.063-20.109 0-36.41-16.301-36.41-36.409 0-10.054 4.075-19.157 10.664-25.746l-0.029-0.029 372.975-372.974-372.493-372.491c-0.084-0.084-0.169-0.169-0.253-0.255l-0.229-0.228 0.006-0.006c-6.38-6.558-10.317-15.508-10.317-25.38 0-20.109 16.301-36.41 36.41-36.41 9.873 0 18.822 3.935 25.381 10.317l0.001-0.002 0.063 0.063c0.197 0.193 0.39 0.385 0.582 0.582l398.221 398.294c6.474 6.573 10.473 15.592 10.473 25.545-0 10.070-4.087 19.183-10.692 25.774z"  horiz-adv-x="1024" />

    
    <glyph glyph-name="shanchu" unicode="&#58921;" d="M718.842417-29.927357 329.390497-29.927357c-38.678928 0-77.423347 17.700127-106.681718 49.037856-28.622898 30.659277-44.817742 70.583568-44.817742 110.015649L177.891038 678.200532l49.118698 0 0-549.074384c0-56.559157 49.759287-109.934808 102.380762-109.934808L718.842417 19.19134c49.824779 0 93.497441 51.318806 93.497441 109.934808L812.339858 678.200532l50.142004 0 0-549.074384C862.482885 42.614819 796.41005-29.927357 718.842417-29.927357zM80.676949 700.713268l877.996718 0 0-49.118698-877.996718 0 0 49.118698ZM715.126792 678.200532 666.008095 678.200532 666.008095 748.80866 374.365828 748.80866 374.365828 678.200532 324.223824 678.200532 324.223824 797.927357 715.126792 797.927357ZM374.365828 531.867746l48.095391 0 0-366.343619-48.095391 0 0 366.343619ZM617.912703 531.867746l48.095391 0 0-366.343619-48.095391 0 0 366.343619Z"  horiz-adv-x="1024" />

    
    <glyph glyph-name="duigou" unicode="&#58930;" d="M512 896C228.266667 896 0 667.733333 0 384c0-283.733333 228.266667-512 512-512 283.733333 0 512 228.266667 512 512C1024 667.733333 795.733333 896 512 896zM832 512 492.8 172.8C469.333333 149.333333 426.666667 149.333333 403.2 172.8L192 384c0 0-32 32 0 64s64 0 64 0l192-192 320 320c0 0 32 32 64 0S832 512 832 512z"  horiz-adv-x="1024" />

    
    <glyph glyph-name="info" unicode="&#59005;" d="M512 800c-229.76 0-416-186.24-416-416s186.24-416 416-416 416 186.24 416 416-186.24 416-416 416zM577.248 230.944c-31.392-47.136-63.328-83.456-117.056-83.456-36.672 5.984-51.744 32.256-43.808 59.04l69.12 228.928c1.696 5.6-1.12 11.584-6.24 13.408-5.088 1.792-15.072-4.832-23.712-14.304l-41.792-50.272c-1.12 8.448-0.128 22.4-0.128 28.032 31.392 47.136 82.976 84.32 117.952 84.32 33.248-3.392 48.992-29.984 43.2-59.2l-69.6-230.048c-0.928-5.184 1.824-10.464 6.528-12.128 5.12-1.792 15.872 4.832 24.544 14.304l41.76 50.24c1.12-8.448-0.768-23.232-0.768-28.864zM567.936 529.952c-26.432 0-47.872 19.264-47.872 47.616s21.44 47.584 47.872 47.584 47.872-19.264 47.872-47.584c0-28.384-21.44-47.616-47.872-47.616z"  horiz-adv-x="1024" />

    
    <glyph glyph-name="dianhua" unicode="&#58912;" d="M679.538761 280.650167c-16.619516 4.456498-42.016953-23.685445-42.016953-23.685445-8.117888-8.117888-15.487739-21.817911-21.99699-36.363186-10.400884-23.242354-39.557948-31.860638-60.655452-17.602913-85.916788 58.06444-168.970366 141.340075-226.592738 227.297796-13.837146 20.641109-5.952572 48.862871 16.253172 60.016909 20.278859 10.18599 39.021735 20.033265 39.021735 20.033265l-0.152473 0.508583c13.866822 6.311753 21.666462 21.914102 17.600867 37.090756 0 0-116.005061 284.032962-149.172461 284.032962-103.732549 0-187.845249-84.1127-187.845249-187.845249 0-23.793916 4.590552-46.334281 12.730952-67.206658 87.034239-302.014498 324.763618-539.5341 626.778116-626.778116 20.871353-8.140401 43.621497-12.730952 67.415412-12.730952 103.731526 0 189.410907 79.103616 189.410907 182.836165C960.317609 120.254084 817.401642 225.246323 679.538761 280.650167z"  horiz-adv-x="1024" />

    
    <glyph glyph-name="duigou1" unicode="&#58944;" d="M384.119471 74.883757c-11.918447 0-23.837918 4.527107-32.936133 13.573133L77.629032 360.667595c-18.196431 18.107403-18.196431 47.456848 0 65.557088 18.196431 18.107403 47.674812 18.10024 65.871243 0.007163l240.619196-239.436254 495.173776 492.739331c18.196431 18.107403 47.674812 18.107403 65.871243 0 18.196431-18.10024 18.196431-47.449685 0-65.557088L417.055604 88.464053C407.956366 79.410863 396.037918 74.883757 384.119471 74.883757z"  horiz-adv-x="1024" />

    
    <glyph glyph-name="bianji1" unicode="&#58928;" d="M341.108888 204.808852 515.979638 279.258471 408.633794 384.873903 341.108888 204.808852ZM860.525811 616.878908 749.7171 731.151511 428.544263 414.30726 543.68156 294.841378 860.525811 616.878908ZM951.813934 753.564987c0 0-29.331026 32.462343-63.091944 57.132208-33.759895 24.670889-59.729359 0-59.729359 0l-57.132208-57.132208 115.996874-115.565039c0 0 48.909943 49.342802 63.957661 66.222237C966.861652 721.102644 951.813934 753.564987 951.813934 753.564987L951.813934 753.564987zM802.174845-50.239985 176.165232-50.239985c-61.635779 0-111.786992 50.151213-111.786992 111.786992L64.37824 687.556621c0 61.635779 50.151213 111.786992 111.786992 111.786992l303.856449 0c12.357446 0 22.357194-10.011005 22.357194-22.357194s-9.999748-22.357194-22.357194-22.357194L176.165232 754.629225c-36.986379 0-67.072605-30.086226-67.072605-67.072605l0-626.009613c0-36.986379 30.086226-67.072605 67.072605-67.072605l626.009613 0c36.985356 0 67.072605 30.086226 67.072605 67.072605L869.24745 365.403456c0 12.347213 9.999748 22.357194 22.357194 22.357194s22.357194-10.011005 22.357194-22.357194l0-303.856449C913.961838-0.088772 863.810624-50.239985 802.174845-50.239985z"  horiz-adv-x="1024" />

    
    <glyph glyph-name="h" unicode="&#58887;" d="M648.837225 398.707206c18.233496 0 32.854695 14.793214 32.854695 32.854695 0 18.233496-14.793214 32.854695-32.854695 32.854695l-66.741475 0 65.021334 64.333277c12.901058 12.729044 13.073072 33.542752 0.172014 46.615824-12.729044 12.901058-33.542752 13.073072-46.615824 0.172014l-87.211154-86.351083-84.1149 86.007055c-12.729044 13.073072-33.542752 13.245087-46.615824 0.516042-13.073072-12.729044-13.245087-33.542752-0.516042-46.615824l63.301193-64.677306-70.697799 0c-18.233496 0-32.854695-14.793214-32.854695-32.854695 0-18.233496 14.793214-32.854695 32.854695-32.854695l109.745003 0 0-43.863598-109.745003 0c-18.233496 0-32.854695-14.793214-32.854695-32.854695 0-18.233496 14.793214-32.854695 32.854695-32.854695l109.745003 0 0-73.278011c0-18.233496 14.793214-32.854695 32.854695-32.854695s32.854695 14.793214 32.854695 32.854695l0 73.278011 98.220057 0c18.233496 0 32.854695 14.793214 32.854695 32.854695 0 18.233496-14.793214 32.854695-32.854695 32.854695l-98.220057 0 0 43.863598L648.837225 398.707206zM805.026037 677.026037c-78.26642 78.26642-182.334957 121.441962-293.112044 121.441962s-214.845624-43.175542-293.112044-121.441962c-78.26642-78.26642-121.441962-182.334957-121.441962-293.112044S140.707542 169.240383 218.973963 90.973963c78.26642-78.26642 182.334957-121.441962 293.112044-121.441962S726.759617 12.707542 805.026037 90.973963s121.441962 182.334957 121.441962 293.112044S883.292458 598.759617 805.026037 677.026037zM749.981522 146.018478c-63.645221-63.645221-148.104149-98.564085-237.895515-98.564085S337.663699 82.545271 274.018478 146.018478c-63.645221 63.645221-98.564085 148.104149-98.564085 237.895515s35.090879 174.422308 98.564085 237.895515c63.645221 63.645221 148.104149 98.564085 237.895515 98.564085S686.336301 685.626743 749.981522 621.981522c63.645221-63.645221 98.564085-148.104149 98.564085-237.895515S813.454729 209.663699 749.981522 146.018478z"  horiz-adv-x="1024" />

    
    <glyph glyph-name="duanxin" unicode="&#58888;" d="M958.359 609.059c0 64.308-52.132 116.44-116.441 116.44H181.454c-64.309 0-116.441-52.132-116.441-116.44v-448.64c0-64.309 52.132-116.441 116.44-116.441h660.465c64.309 0 116.441 52.132 116.441 116.44v448.64z m-114.545 74.485c12.06 0 23.445-3.466 33.52-8.599L530.749 346.652c-1.228-1.161-1.156-0.916-1.753-1.868-1.426-1.067-6.056-3.922-15.45-3.922-9.397 0-14.025 2.754-15.45 3.818-0.677 1.078-0.663 0.717-1.996 1.94L142.977 671.034c11.61 7.557 25.446 12.51 40.301 12.51h660.536z m72.59-524.029c0-40.857-31.731-73.583-72.59-73.583H183.277c-40.858 0-75.285 32.726-75.285 73.583V608.342c0 10.63 2.86 20.736 6.909 29.883l351.486-322.097c4.912-5.303 19.48-17.676 47.01-17.676 27.799 0 42.303 12.618 47.076 17.83l346.8 328.9c6.252-10.86 9.13-23.434 9.13-36.838v-448.829z"  horiz-adv-x="1024" />

    
    <glyph glyph-name="yiwen" unicode="&#59068;" d="M512 835.730286A452.242286 452.242286 0 0 0 963.730286 384 452.242286 452.242286 0 0 0 512-67.730286 452.242286 452.242286 0 0 0 60.269714 384 452.315429 452.315429 0 0 0 512 835.730286zM512 896a512 512 0 1 1 0-1024A512 512 0 0 1 512 896z m-42.934857-753.517714a42.934857 42.934857 0 1 1 85.869714 0 42.934857 42.934857 0 0 1-85.869714 0z m36.644571 96.621714a30.134857 30.134857 0 0 0-30.061714 30.134857c0 118.491429 105.106286 168.374857 105.618286 168.594286 25.819429 20.553143 40.740571 42.861714 37.229714 75.337143-2.486857 23.405714-28.452571 52.516571-63.926857 59.977143-36.937143 8.484571-83.382857-3.803429-106.934857-24.502858-30.354286-26.697143-31.670857-67.364571-31.670857-67.803428a30.208 30.208 0 0 0-30.061715-29.549714H385.462857a30.061714 30.061714 0 0 0-29.696 30.208c0 2.706286 1.024 66.852571 51.273143 111.689142 37.522286 33.499429 97.426286 53.394286 165.888 37.595429 118.857143-39.716571 110.299429-125.366857 101.010286-156.964571-8.777143-30.281143-24.502857-66.194286-69.12-90.989715l0.146285-0.365714c-2.706286-1.243429-69.046857-33.792-69.046857-113.152a30.208 30.208 0 0 0-30.208-30.208z"  horiz-adv-x="1024" />

    
    <glyph glyph-name="tuzhang" unicode="&#59062;" d="M91.532436 460.072945c4.2858 35.204783 15.612556 68.266667 30.000598 100.716293 1.836771 3.979671 5.204185 10.102242-0.918385 16.530941-1.836771 1.836771-1.836771 20.204484 5.510314 20.510613 18.061584 1.224514 22.959641 15.612556 27.551569 26.020927 8.265471 18.97997 24.184155 32.449626 35.81704 47.756054 11.632885 15.000299 29.388341 29.082212 45.613154 42.24574 27.245441 21.735127 55.409268 41.939611 86.940509 56.633781 7.347085 3.367414 6.734828 11.939013 15.918684 13.469657 37.653812 6.4287 73.776981 18.97997 108.981764 32.755755 1.530643 1.224514 2.1429 2.755157 2.449029 4.591928 0.306129 2.1429 1.530643 3.979671 3.673542 5.204185 3.367414 0.612257 5.204185 0 2.755157-3.673542-1.836771-2.755157-7.040957-3.367414-5.204185-8.265471 5.204185 0.918386 11.020628-2.449028 14.69417 4.591928 1.836771 3.673543 9.183857 4.2858 10.408371 1.836771 4.2858-7.959342 10.408371-4.2858 15.612556-3.979671 14.388042 0.612257 29.388341 3.979671 43.164125 1.836771 14.69417-2.449028 29.388341-4.591928 44.082512-5.816442 13.775785-1.224514 27.55157-4.591928 41.021225-8.265471 2.449028-0.612257 12.245142-0.306129 6.4287-9.183856-3.673543-5.510314-3.061286-5.816442 3.979671-10.7145 3.061286-0.306129 6.122571-0.306129 9.183857-0.612257 3.061286-0.918386 6.122571-2.1429 9.183856-3.061285 3.061286-2.1429 6.122571-3.979671 10.408371-3.061286 1.530643-5.510314 7.653214-3.367414 11.020628-6.122571 0 0.918386 0 1.836771 0.306128 2.449029-2.449028 3.367414-6.122571 4.2858-9.796113 5.204185-1.224514 5.204185-5.510314 3.367414-8.877728 3.979671-2.1429 3.061286-5.510314 2.755157-8.265471 3.367414-2.449028 2.1429-5.204185 2.1429-8.265471 2.449029 0.306129 0.306129 0.306129 0.612257 0.612257 1.224514 7.040957 9.489985 20.204484-1.836771 27.245441 7.959342 0.306129 0.612257-0.306129-2.1429 0-3.367414 2.755157-9.183857 22.041256-16.530942 33.368012-12.857399 3.979671-1.530643 9.796114-1.224514 8.877728-8.571599-0.306129-4.2858 3.367414-7.347085 7.347085-9.183857 13.163528-6.4287 25.714798-14.081913 38.266069-21.735127 21.735127-13.469656 43.164126-26.939312 59.388938-47.449925 7.959342-9.796114 16.224813-19.592227 27.857699-25.40867 12.551271-13.469656 25.102541-27.245441 34.592526-43.470254 5.204185-8.877728 11.326756-14.388042 22.653512-8.877728 4.591928 2.1429 10.714499 1.530643 15.306428 4.898057-10.714499 22.653513-10.714499 22.653513-22.347384 19.286098-2.1429 0-5.510314-1.836771-3.979671 3.061286 6.122571 3.979671 7.653214 7.653214 3.061285 15.306427-7.347085 11.939013-16.83707 21.735127-26.020927 32.143498-32.755755 38.266069-72.246338 68.572795-116.328849 92.756951-10.408371 5.816442-19.592227 20.510613-35.510911 12.55127-1.836771-1.530643-4.2858-2.449028-6.4287-3.367414 3.061286 2.449028 5.816442 5.204185 3.979671 10.408371-3.673543 5.816442-10.714499 3.061286-16.224813 5.816443-15.000299 7.959342-30.306726 17.449327-49.286697 13.163527-2.449028-0.612257-8.265471 1.530643-8.26547 2.449029 0 9.796114-7.959342 7.347085-12.8574 8.26547-18.673842 3.673543-37.653812 7.040957-56.327653 9.183857-25.102541 3.061286-49.898954 6.734828-75.307623-2.1429-13.469656-4.591928-29.082212 4.591928-44.082511 1.530643-47.449925-9.796114-93.675336-22.653513-137.145591-44.694768-34.286398-17.449327-66.123767-38.572197-95.512107-62.756353-18.97997-15.918685-36.735426-34.286398-52.96024-53.572497-15.306428-18.367713-24.184155-41.021226-40.408968-59.08281-11.939013-13.469656-17.449327-32.755755-26.020927-49.286696-1.836771-3.367414-1.836771-6.122571 2.449029-6.4287 14.69417-0.918386 4.2858-6.4287 1.836771-10.102242-5.816442-9.183857-17.755456-11.632885-21.428999-23.878027-7.959342-25.102541-14.69417-50.511211-19.286098-76.532137-0.612257-3.979671-0.612257-7.653214 1.530642-9.489985 6.122571-4.898057 33.061883 6.4287 33.980269 12.857399zM919.304036 259.864873c4.591928 4.2858 4.898057 8.877728 0.918386 15.612556-2.1429-6.122571-3.673543-10.408371-5.204186-15.000299-3.367414-10.102242-6.734828-20.204484-11.326756-34.286398 11.939013 11.632885 15.612556 22.041256 15.612556 33.674141zM900.324066 217.313004c1.836771-0.918386 3.367414-1.530643 3.061285-3.979671 2.449028 3.061286 5.204185 7.347085 1.224514 9.489985-3.367414 1.836771-4.2858-2.449028-4.285799-5.510314zM732.259492 687.220329c9.489985 3.979671 9.796114 11.632885 8.265471 19.898356-7.040957 17.755456-26.020927 20.816741-38.572198 31.53124-6.122571 4.898057-9.489985 3.673543-13.469656-2.755157-10.408371-17.755456-21.735127-34.898655-32.755755-52.347982-3.367414-5.204185-2.755157-8.265471 2.755157-11.632885 5.816442-3.673543 8.877728-4.591928 13.775785 2.755157 3.673543 5.816442 4.591928 18.367713 14.69417 15.306428 9.489985-3.061286 20.510613-8.265471 17.449328-22.347384-3.367414-6.122571-10.102242-11.632885-6.734828-18.97997 1.530643-3.367414 7.347085-4.898057 11.020627-7.040957 3.061286 5.510314 7.347085 10.408371 7.653214 17.143199 6.734828 8.265471 3.061286 22.959641 15.918685 28.469955z m-19.592227 4.898057c-8.265471 2.449028-18.673842 4.898057-19.898356 14.69417-0.612257 3.979671 4.898057 15.306428 10.408371 12.857399 7.653214-3.061286 18.673842-5.816442 19.592227-14.388042-0.306129-9.796114-3.367414-15.000299-10.102242-13.163527zM857.466069 627.525262c-0.306129 0-0.306129 0 0 0-0.306129 0-0.306129-0.306129 0 0-0.306129-0.306129 0 0 0 0zM878.588939 165.57728c2.1429 3.979671 3.979671 7.959342 6.122571 11.939013 5.204185 4.2858 7.959342 10.102242 8.877728 16.530942 3.979671 1.530643 3.367414 4.898057 3.367414 7.959342-1.224514 0-2.449028 0.306129-3.367414 0.306129-0.918386-1.224514-1.530643-2.449028-2.449029-3.673543-4.2858-2.755157-5.510314-7.040957-6.428699-11.632885-6.4287-3.061286-4.898057-11.020628-9.183857-15.612556-4.898057-2.449028-5.816442-7.040957-6.428699-11.632885-3.367414-2.449028-5.204185-5.510314-5.816443-9.796114 1.224514-0.306129 2.755157-0.612257 3.979671-0.612257 1.836771 2.1429 3.673543 4.591928 5.510314 6.734828 3.367414 2.449028 4.898057 5.510314 5.816443 9.489986zM629.400299 752.119581c7.653214-2.449028 15.306428-5.204185 22.653513-7.959342 5.816442-2.1429 9.796114 0 11.326756 5.816443 1.836771 6.122571-1.836771 7.653214-6.734828 9.183856-11.326756 3.367414-22.653513 7.959342-33.980269 11.326756-8.571599 2.449028-15.306428-0.306129-18.673842-9.183856-6.4287-18.061584-12.245142-36.123169-18.673841-54.184753-2.1429-6.122571-0.612257-8.877728 5.816442-10.7145 14.081913-3.979671 27.55157-9.183857 41.327354-13.775784 5.204185-1.836771 8.571599-1.224514 11.326757 5.510313 3.367414 8.877728-3.061286 7.959342-7.040957 9.489986-7.653214 2.755157-15.306428 4.898057-22.959641 7.347085-5.816442 1.836771-8.877728 3.061286-5.816443 11.326756 3.061286 7.959342 5.204185 9.183857 12.551271 6.122571 5.816442-2.449028 12.551271-3.979671 18.673842-5.816442 7.653214 3.367414 7.653214 8.265471 2.755157 14.081913-5.816442 1.836771-11.326756 4.2858-17.143199 5.816442-5.510314 1.224514-8.877728 2.449028-7.040957 9.796114 2.449028 7.040957 6.122571 7.653214 11.632885 5.816442zM719.402093 611.300448c-13.163528 2.449028-24.796413 2.1429-32.143498 11.939014-2.449028 3.367414-6.734828 4.591928-7.347085-0.918386-1.836771-13.775785-13.163528-17.449327-25.40867-22.653512 12.245142-3.367414 18.367713-8.571599 17.449327-20.510613-0.306129-2.449028-0.612257-15.612556 8.265471-7.959343 10.102242 8.877728 19.898356 7.040957 32.755755 3.367414-1.224514 13.775785-9.489985 26.327055 6.4287 36.735426zM851.037369 640.076532c-3.367414 4.2858-2.449028 13.469656-13.469656 11.326756 4.2858-6.4287 6.4287-12.551271 13.163528-15.918684 0.918386-3.673543 2.755157-6.734828 6.428699-8.265471 1.836771 6.4287-2.1429 9.489985-6.122571 12.857399zM572.460389-36.467564c14.69417 1.224514 29.082212 3.367414 42.857997 8.877728 3.979671 0.918386 8.571599-0.918386 11.939013 3.061286 2.1429 0.306129 4.2858 0.918386 6.122571 1.224514 3.673543 1.836771 9.183857 1.530643 8.877728 7.653214-3.673543-1.530643-8.877728 2.1429-11.632885-3.061286-3.061286-0.918386-7.040957 0.918386-9.183856-3.061285-4.898057-1.530643-11.020628 2.449028-15.306428-3.061286-11.326756-0.918386-22.959641-1.530643-33.980269-5.510314-11.939013-3.367414-25.714798 3.673543-36.429297-6.734828 12.245142-4.898057 24.490284-2.755157 36.735426 0.612257zM628.788042 101.902541c-1.836771 3.979671-6.122571 2.1429-9.489985 2.1429-3.061286 0-6.122571 0-9.183857-0.306129-4.591928-1.836771-1.530643-10.714499-9.183856-10.102242-1.224514 3.367414 1.224514 8.265471-3.367414 10.408371-7.959342 3.061286-10.714499 13.469656-22.041256 15.306427 0.918386-23.878027-16.530942-30.000598-37.95994-34.898654 18.97997-7.040957 33.061883-14.69417 32.755755-34.898655 0-11.632885 7.347085-6.734828 10.102242-3.061285 13.775785 17.143199 28.776084 9.796114 46.225411 2.449028-1.530643 5.816442-1.530643 11.326756-3.979671 14.69417-7.040957 10.408371-7.040957 19.592227 1.836771 28.469956 2.449028 2.755157 6.122571 6.122571 4.2858 9.796113zM905.83438 137.107324c0.612257 9.183857 0.306129 9.489985 8.571599 14.081914 3.061286 1.836771 3.061286 5.204185 4.591928 7.347085 8.877728 10.714499 8.877728 25.714798 15.612556 36.735426 17.143199 26.633184 23.26577 56.021525 31.225112 86.328251-5.204185-0.612257-8.877728-0.918386-12.245142-0.918386-14.081913-1.224514-23.26577-6.122571-26.327055-22.653512-3.673543-22.041256-13.163528-42.24574-24.796412-61.531839-15.306428-20.510613-31.225112-40.715097-32.143498-67.960538-10.102242-3.979671-15.306428-14.388042-23.571898-20.510613-2.755157-2.1429-7.347085-5.816442-5.204186-7.653214 3.979671-3.673543 6.734828 0.918386 9.183857 3.979672 1.530643 0.306129 3.367414 0.612257 4.898056 0.918385 1.530643 0.306129 2.755157 0.306129 4.2858 0.612257-0.918386-0.306129-1.530643-0.918386-2.449028-1.224514-16.224813-8.877728-28.469955-23.571898-44.38864-31.837369-17.449327-9.183857-30.306726-23.878027-47.143797-33.061884-15.918685-13.163528-33.368012-24.184155-52.347982-32.449626-60.001196-32.449626-124.59432-47.756054-192.248729-49.898954-8.571599-0.306129-12.857399-4.2858-17.449328-9.796113-0.918386-0.918386-2.1429-1.836771-3.061285-3.061286-0.612257 1.530643 0.918386 2.449028 1.224514 3.979672 0.306129 1.530643 0 2.755157-0.612257 3.979671-11.939013 9.489985-26.939312 7.653214-40.715097 9.489985-56.327653 7.040957-109.287892 24.184155-158.574589 52.960239-0.918386 0.612257-2.1429 1.224514-3.061286 1.836771h0.306129c13.469656-2.1429 23.571898-12.857399 37.041555-15.306427 10.102242-7.040957 21.12287-11.632885 33.368011-12.857399 7.347085-4.591928 14.69417-9.183857 23.571899-9.183857 4.898057-2.449028 9.489985-4.898057 15.306427-3.367414 2.755157-3.061286 6.4287-2.449028 9.796114-2.449028 5.510314-4.2858 11.939013-5.510314 18.673842-3.367414 2.1429-0.918386 4.2858-1.530643 6.122571-2.449029l0.918385-0.612257h1.224514c4.898057-3.367414 10.714499-2.449028 16.224814-2.449028 14.081913-3.979671 28.469955-3.367414 42.857997-2.755157h12.55127c4.898057 0.612257 10.714499-3.367414 14.69417 2.449028-1.836771 0-3.673543 0.306129-5.510313 0.306129-7.653214 6.122571-16.530942 1.530643-24.796413 2.449028-11.326756 0.918386-22.653513 2.1429-33.67414 3.061286-3.061286 0.306129-5.816442 0.612257-8.877728 1.224514-3.367414 5.204185-8.265471 2.1429-12.551271 2.1429-3.061286 0.306129-6.122571 0.306129-9.183856 0.612257-3.979671 5.510314-10.408371 0.612257-15.306428 3.367414-2.449028 4.2858-6.4287 1.224514-9.489985 2.1429-4.898057 1.224514-10.102242 2.449028-15.000299 3.673542-8.265471 6.122571-18.061584 6.734828-27.245441 9.796114-9.489985 6.122571-19.898356 9.796114-30.918984 11.632885-13.163528 12.245142-31.225112 15.306428-45.919282 24.796412-1.836771 3.367414-4.898057 5.510314-8.877728 6.4287-6.4287 5.510314-11.632885 13.163528-21.735127 11.939013v0.306129l-0.306129-0.306129c-2.449028 11.632885-15.000299 13.775785-21.428998 21.735127-1.836771 3.979671-4.591928 7.347085-9.183857 8.265471-9.489985 6.122571-12.857399 18.673842-24.490284 22.347384-3.979671 3.061286-3.979671 9.489985-9.489985 11.326757-3.673543 5.204185-5.510314 12.245142-16.530941 11.632885 5.204185-5.816442 9.183857-10.102242 12.857399-14.388042 3.061286-5.510314 5.816442-11.326756 12.55127-13.163528 3.367414-4.591928 6.734828-9.183857 9.796114-13.775785 4.898057-3.979671 10.102242-7.959342 15.000299-11.939013 1.836771-1.530643 3.673543-2.755157 5.204185-4.2858 6.4287-6.122571 12.857399-11.939013 18.97997-18.061584 1.224514-1.530643 2.755157-1.836771 4.591929-1.224514 0.306129 0.306129 0.612257 0.306129 0.918385 0.612257-1.224514-1.836771-1.224514-3.367414-0.306128-4.898057-2.449028 1.836771-4.898057 3.367414-7.347086 5.204185-12.245142 7.653214-23.878027 16.530942-37.041554 22.653513h-0.612257c3.061286 3.979671 0.306129 6.122571-3.367414 8.265471-13.469656 5.510314-22.347384 15.306428-28.776084 29.388341-2.755157 5.816442-6.4287 12.551271-13.775785 12.857399-9.489985 0.612257-18.367713-1.836771-27.245441-5.204186-0.612257-0.306129-0.918386-3.061286-0.306128-3.979671 14.388042-16.530942 23.571898-37.653812 43.470254-48.674439 4.898057 4.591928-0.306129 15.306428 9.489985 13.775784 5.816442-0.918386 11.326756-4.591928 17.143199-7.040956-2.1429-2.755157-4.591928-4.2858-8.265471-5.510314-7.040957-2.755157-1.224514-11.020628-4.591928-15.918685 10.408371 0.918386 10.714499-9.489985 15.918684-14.69417 17.755456-17.143199 39.184454-29.388341 59.388939-43.164126 7.040957-4.898057 14.388042-9.183857 23.26577-3.979671 4.898057 3.061286 8.265471-3.061286 7.959342-3.673542-5.510314-12.857399 6.4287-11.632885 11.632885-14.694171 22.347384-12.245142 47.449925-17.143199 70.715695-27.245441 7.040957-3.061286 13.163528-2.449028 19.592227 0 7.347085 3.979671 7.959342-1.836771 8.877728-6.428699 69.491181-12.551271 138.982362-23.878027 205.718386 12.245142 4.591928-1.836771 5.510314 1.836771 6.734828 4.285799 0.918386-4.2858-9.489985-6.734828-3.061286-12.857399 51.735725 13.163528 101.634679 32.449626 144.492676 63.980867 78.368909 56.93991 107.451121 88.471151 112.349178 113.573692-4.591928-1.836771-8.571599-3.673543-12.857399-5.204185-1.836771 0.306129-3.367414 0-4.898057-0.306129 0.612257 0.612257 0.918386 1.530643 1.530643 2.449029l7.347085 14.69417c15.000299-8.877728 30.918984-2.449028 31.531241 10.102242zM274.903438 31.492975c0.918386-0.306129 2.1429-0.612257 3.061285-0.612258 0.306129-0.918386 0.918386-1.836771 1.224515-2.449028-1.224514 0.918386-2.755157 1.836771-4.2858 3.061286z m10.102242-7.040957c1.530643-0.306129 3.061286-0.306129 5.204185 0 0-0.306129-0.306129-0.612257-0.306128-0.918386 0.306129-1.224514 0.918386-2.1429 1.530643-3.061285-2.1429 1.530643-4.2858 2.755157-6.4287 3.979671zM357.864275 116.90284c7.040957-7.040957 18.061584-10.102242 16.530942-22.347384-1.224514-9.796114 4.591928-9.796114 9.183856-4.898057 9.796114 10.102242 19.592227 6.734828 31.837369 1.224514-1.836771 13.469656-13.163528 24.490284 1.530643 34.592526 3.061286 2.1429-0.918386 6.122571-3.979671 5.204186-11.939013-2.449028-19.898356 3.673543-26.939312 11.632885-3.061286 3.367414-5.510314 0.612257-5.510314-0.612257 2.449028-16.530942-13.163528-17.755456-22.653513-24.796413zM720.320478 277.620329c-58.164425-10.408371-115.410463-26.633184-173.881016-37.041555-51.429596-9.183857-102.553064-20.204484-153.676532-30.306726-47.756054-9.489985-95.512108-19.286099-142.962033-29.69447-53.572496-11.939013-107.451121-22.653513-161.329746-33.368011-7.347085-1.530643-11.020628-3.673543-7.959342-10.408371 2.449028-5.204185-1.530643-16.530942 11.326756-14.081913 21.12287 4.591928 42.24574 9.489985 63.36861 13.469656 60.613453 12.245142 121.533034 23.878027 182.146487 36.123169 58.470553 11.939013 116.328849 25.102541 174.799402 36.429297 51.429596 10.102242 102.553064 20.204484 153.676532 30.918984 44.38864 9.489985 89.083408 18.97997 133.472048 28.776083 63.674738 14.081913 127.961734 25.40867 191.636473 38.572198 12.551271 2.449028 3.673543 12.245142 3.979671 18.673841 0.306129 6.122571-1.836771 8.265471-9.489985 6.122571-14.081913-4.2858-29.082212-5.816442-43.470254-8.877728-73.776981-14.69417-147.247833-31.837369-221.637071-45.307025zM789.811659 67.310015c-6.734828 0.918386-8.877728-5.204185-12.245142-8.877728l-18.367713-15.612556c-8.571599-3.061286-15.000299-9.183857-21.12287-15.306428 10.102242 0.306129 17.449327 5.510314 24.490284 11.939014h3.061286c4.2858 3.673543 8.265471 7.653214 12.55127 11.326756 7.040957 2.1429 9.489985 9.489985 15.000299 13.469656 6.122571 3.367414 11.939013 6.734828 12.857399 14.694171 8.877728 2.1429 14.69417 7.040957 18.061585 15.306427 5.816442 0 6.122571 5.816442 8.877728 8.877728 4.898057 3.673543 9.489985 7.653214 11.632885 13.469657 0 3.673543-1.530643 3.979671-4.2858 2.142899-3.673543-3.979671-7.040957-7.959342-10.714499-11.939013-3.061286-3.061286-6.122571-6.122571-9.183857-8.877728-6.4287-5.816442-13.775785-10.714499-18.367713-18.673842-4.2858-3.673543-8.265471-7.653214-12.245142-11.939013zM578.58296 773.54858c0.306129 4.898057-1.224514 6.734828-6.4287 7.653214-11.939013 1.836771-23.878027 3.673543-36.123169 2.1429-0.918386-0.612257-1.224514-1.530643-1.836771-2.1429-3.979671 0-6.734828-3.979671-10.714499-2.755157-9.489985-3.979671-4.591928-12.245142-5.510314-18.97997l-0.918386-11.939014c-2.755157-5.204185 2.449028-11.326756-1.836771-16.224813-0.306129-0.612257-0.306129-1.224514 0-1.836771 3.673543-3.979671 7.347085-3.979671 11.020628 0 10.102242 15.918685 25.40867 7.347085 38.572197 7.653214 5.204185 0 7.653214 0.612257 7.653214 5.510313 0.306129 3.979671 0.918386 7.959342-5.510314 7.959343-8.571599 0.306129-17.143199 3.367414-25.40867 2.449028-10.714499-1.224514-5.204185 5.816442-6.122571 9.489985 0.612257 2.755157-0.612257 6.122571 3.673543 6.734828 10.408371-1.224514 21.12287-2.449028 31.53124-3.673542 5.816442-0.918386 7.959342 2.1429 7.959343 7.959342zM746.341405 215.170105c-1.836771 3.673543-6.122571 2.1429-7.040957-0.918386-3.061286-13.163528-14.69417-17.143199-27.245441-25.102541 16.530942-4.898057 21.735127-15.306428 19.898356-30.612855 11.020628 6.122571 20.204484 14.69417 32.755755 7.040957 2.755157-1.530643 8.571599 0 6.122571 5.204185-5.816442 12.245142 0 22.653513 6.4287 35.510912-13.469656-2.755157-24.490284-3.673543-30.918984 8.877728zM710.830493 7.921076c3.979671 2.755157 7.959342 5.204185 11.939014 7.959343 3.673543 0 7.347085 0.612257 8.265471 5.204185h-8.265471c-4.2858-2.755157-8.265471-5.510314-12.551271-8.265471-1.224514-1.836771-0.918386-3.367414 0.612257-4.898057zM700.422123 3.941405c0.918386 2.449028-0.306129 3.673543-2.449029 4.2858-3.979671-1.836771-7.959342-3.979671-11.939013-5.816443-8.265471 1.530643-12.245142-5.816442-18.673842-8.571599-7.347085 0-13.775785-2.1429-17.449327-8.877728 8.571599-0.306129 16.530942 2.1429 23.878027 6.122571 5.816442 0.306129 10.408371 3.673543 15.306427 6.122571 3.979671 1.530643 8.877728 2.1429 11.326757 6.734828z m-28.163827-12.245142c0.612257 0 0.918386-0.306129 1.224514-0.612257-0.612257 0.306129-0.918386 0.612257-1.224514 0.612257zM408.987743 688.138714c4.898057 2.449028 9.489985 3.673543 4.591928 10.102243-7.653214 0.306129-13.775785 7.040957-22.041255 5.510314 0.612257-5.816442 4.2858-9.796114 7.347085-14.388042 2.755157-4.591928 5.510314-3.673543 10.102242-1.224515zM320.82272 760.385052v-0.612257s0.306129 0 0.306129 0.306129l-0.306129 0.306128zM564.807175 718.445441c-6.4287 1.224514-12.857399 1.224514-19.592227 0.306129 0-6.734828 3.061286-11.326756 9.183856-14.388042 2.449028-0.612257 4.898057-1.224514 7.347085-1.530643 4.2858-0.612257 9.489985-6.122571 11.326757 3.061285 1.530643 8.265471-1.530643 11.326756-8.265471 12.551271zM355.109118 774.773094c-6.122571 0-10.714499-3.061286-15.306427-6.428699 0-1.224514 0-2.449028 0.306128-3.673543 5.816442 0.612257 11.020628 2.1429 15.000299 6.734828l27.55157 9.183857c5.204185 2.1429 11.326756 1.530643 15.306427 6.428699 14.69417-0.306129 28.469955 4.2858 42.24574 7.959342 0.612257-0.306129 1.224514 0 2.1429 0.612258 11.632885 1.224514 23.26577 2.449028 35.204783 3.673542 9.489985-1.836771 18.367713 0.918386 27.55157 2.755157-1.224514 7.653214-6.4287 3.367414-10.408371 3.673543-8.571599-1.224514-17.755456 5.510314-26.327055-1.224514-10.408371 0.612257-20.816741-0.612257-30.612855-3.673543-4.898057-1.530643-0.306129-3.061286 0.918385-4.2858-14.69417 3.367414-28.163827 0.918386-40.715097-7.347085-6.122571-3.061286-15.612556 3.979671-19.286099-6.122571-8.265471-2.1429-17.143199-1.836771-23.571898-8.265471zM320.516592 759.772795l-23.878027-12.857399c11.020628-0.306129 21.735127-0.612257 23.878027 12.857399zM780.627803 707.118685c4.898057-8.877728 15.306428-11.326756 21.12287-18.673842 1.224514-3.673543 4.591928-3.979671 7.347085-5.510314 7.959342-9.183857 15.918685-18.367713 25.102541-29.082212 1.530643 8.877728-3.367414 11.939013-4.591928 16.224813-7.959342 2.755157-10.102242 12.857399-18.367713 15.306428-0.918386 3.061286-3.061286 4.898057-5.816443 6.122571-7.040957 6.4287-14.081913 12.857399-21.428998 19.286098-3.061286 4.2858-7.040957 7.653214-12.551271 8.265471-11.326756 11.939013-25.714798 19.286099-39.796711 27.245441-9.183857 7.959342-19.286099 14.081913-30.918984 18.061584-3.367414 4.2858-7.959342 2.449028-12.245142 3.061286l0.918386-0.918386-0.612257-0.918385c1.530643-3.673543 4.898057-3.673543 7.959342-4.2858 9.183857-5.204185 16.224813-15.000299 28.163827-15.000299 14.388042-10.102242 28.469955-20.510613 42.857997-30.612855 4.591928-2.449028 8.877728-5.510314 12.857399-8.571599zM587.766816 795.895964c3.673543-3.673543 8.265471-2.1429 12.245142-2.449028 5.510314-4.591928 11.632885-3.979671 18.97997-1.836772-4.2858 3.367414-6.122571 8.571599-11.939013 4.898057-6.122571 2.449028-12.245142 5.204185-18.97997 3.367414-5.204185 3.979671-11.632885 1.836771-17.449328 2.755157-3.367414 2.1429-6.734828 3.061286-10.40837 2.1429-4.898057 0.306129-9.489985 0.612257-14.388042 0.918386-2.755157-0.612257-5.816442-0.918386-7.040957-3.979671 2.755157-3.061286 5.816442-3.673543 9.489985-1.836772 6.122571-0.306129 12.245142-0.306129 18.367713-0.612257 5.816442-6.734828 14.081913-0.918386 21.12287-3.367414zM39.490583 397.928849c37.653812 8.571599 76.226009 13.163528 113.573692 22.347384 68.878924 17.143199 139.28849 28.163827 208.473543 44.082511 33.674141 7.653214 67.960538 13.775785 102.246935 20.204485 60.001196 11.020628 119.696263 25.40867 179.391331 37.95994 59.388939 12.245142 118.777877 24.184155 178.166816 36.123169 43.776383 8.877728 87.552765 18.367713 131.329148 26.939312 3.979671 0.918386 5.204185 0.918386 5.816442 5.510314 2.1429 13.163528-5.510314 21.12287-18.97997 17.449327-43.164126-11.020628-87.246637-18.367713-130.716891-27.24544-62.144096-12.551271-124.288191-26.633184-186.432287-39.796712-65.817638-13.775785-131.635277-27.245441-197.759043-40.10284C348.37429 486.706129 272.45441 469.256801 195.922272 455.174888c-53.572496-9.796114-106.226607-22.653513-159.492975-33.674141-8.571599-1.836771-11.326756-5.204185-10.40837-14.081913 0-7.653214 0.306129-12.551271 13.469656-9.489985zM170.513602 626.300747c-6.734828-3.673543-7.653214-9.183857-9.796113-13.775784 7.959342 0.612257 9.489985 5.816442 9.796113 13.775784zM137.14559 575.789537c-3.673543-7.040957-7.347085-14.081913-11.326756-21.735127 15.000299-0.306129 11.632885 11.632885 15.000299 18.673841 3.367414 0.612257 3.061286 3.367414 3.367414 5.510314l-2.755157 6.4287c-1.224514-3.061286-2.755157-6.122571-4.2858-8.877728zM116.634978 510.584155c3.673543 6.122571 4.2858 12.857399 5.510313 19.592228 0.918386 3.061286-0.306129 3.673543-3.061285 2.755157-3.979671-4.2858-5.816442-9.183857-6.122571-15.000299-3.673543-7.347085-6.122571-15.306428-5.204185-23.878027l1.224514-0.918386c-0.612257 0-1.224514 0.306129-1.224514 0.918386-6.122571-0.918386-3.061286-5.816442-4.2858-8.877728-2.449028-3.061286-2.755157-6.734828-2.449028-10.714499 0.306129-0.306129 0.612257-0.612257 0.918385-1.224515-0.306129 0.306129-0.612257 0.612257-0.918385 1.224515-0.612257-0.612257-0.918386-1.224514-0.612258-2.1429-2.755157-3.367414-2.1429-7.653214-2.449028-11.632885 0-1.836771 0-4.2858 2.755157-3.979671 3.673543 0.306129 2.755157 3.367414 2.755157 5.816442 0.306129 2.449028 4.2858 3.061286 2.449028 6.122571l0.918386 9.183857c3.367414 4.898057 2.755157 10.408371 1.836771 15.612556 6.4287 3.979671 5.510314 11.326756 7.959343 17.143198zM443.274141 761.303438c7.959342 6.734828 19.592227 9.796114 28.469955-2.1429 4.2858-5.816442 10.714499-0.918386 15.000299 1.530643 2.1429 1.224514-0.918386 6.734828-3.673543 9.796113-10.408371 11.632885-22.959641 15.000299-37.95994 10.102243-14.388042-4.591928-23.878027-14.388042-25.40867-28.776084-1.836771-15.000299-0.306129-30.306726 11.632885-41.939611 3.979671-1.530643 7.347085 0.918386 10.714499 2.449028 4.2858-7.653214 11.326756-11.939013 20.816742-11.939013 9.489985-0.918386 16.224813 11.632885 22.347384 9.489985 18.061584-6.734828 11.939013 3.979671 10.714499 12.245142-0.918386 4.898057-2.449028 9.796114-2.449028 14.69417 0 12.245142-7.040957 12.245142-15.918685 9.796114-4.2858 0-9.183857 2.755157-12.55127-2.449029-6.734828-0.306129-6.734828-5.510314-5.204186-9.489985 2.1429-5.510314 7.347085-2.1429 11.326757-2.449028 2.755157 2.755157 2.1429 5.510314 0.612257 8.265471h3.367414c0.612257-3.979671 6.122571-7.040957 2.755157-11.939014-5.204185-16.530942-18.673842-11.632885-30.306727-11.632885-2.755157 3.979671-6.734828 7.959342-7.959342 12.551271-3.673543 10.714499-5.816442 23.878027 3.673543 31.837369zM392.456801 744.160239c-2.755157 10.102242-10.714499 13.469656-19.898356 12.551271-17.449327-1.836771-34.898655-8.571599-45.613154-20.204485-5.816442-6.4287 7.040957-21.735127 12.551271-32.449626 0.306129-2.449028 0-5.204185 3.061286-6.428699 2.755157-2.449028 6.122571 1.836771 9.183856-0.918386-1.836771-2.1429-5.510314-1.530643-6.122571-4.898057 2.1429-5.510314 4.898057-11.020628 6.4287-16.83707 2.1429-8.877728 6.122571-10.102242 14.388041-6.4287 10.102242 4.2858 4.2858 9.183857 2.449029 14.694171-2.1429 6.122571-7.040957 10.714499-7.040957 17.449327 3.061286 1.224514 5.816442 2.449028 8.877728 3.673543 2.1429 0.918386 3.979671 2.1429 6.122571 3.061285h5.816443c3.367414 3.061286 0.612257 6.4287 0.918385 9.489985 5.204185 1.836771 3.061286 5.204185 1.836772 8.5716 0.306129 0.306129 0.918386 0.612257 1.224514 0.918385 4.591928 5.204185 4.2858 11.632885 5.816442 17.755456z m-13.163527-18.367713c-0.612257-3.367414-3.061286-4.898057-5.816443-6.122571-7.347085 2.1429-16.224813-15.918685-22.347384 1.836771-1.530643 4.2858-8.265471 9.796114 0.612257 12.8574 7.653214 2.449028 15.306428 12.551271 24.184155 2.449028 2.449028-3.061286 4.591928-6.734828 3.367415-11.020628zM518.275635 658.750374c-9.489985-1.224514-13.163528-0.918386-15.918684-2.449029-11.326756-5.816442-19.286099-3.061286-28.469955 5.510314-6.122571 5.510314-7.040957 13.775785-14.388042 18.367713-7.959342 4.898057-13.469656 7.959342-15.306428-4.2858-3.061286-18.97997-12.857399-31.225112-32.449626-34.592526-3.673543-0.612257-7.347085-3.061286-12.245142-5.204185 2.449028-2.755157 3.061286-4.2858 4.2858-4.898057 21.12287-9.183857 36.123169-22.041256 29.694469-48.062182-1.224514-4.591928 1.530643-5.510314 3.979671-6.122571 3.673543-0.918386 5.510314 2.1429 6.4287 4.898057 5.816442 16.530942 19.592227 14.69417 32.449626 14.081913 10.102242-0.612257 20.204484-2.755157 32.143498-4.591928-11.632885 23.878027-17.143199 45.919283 9.796113 67.348281zM308.27145 650.484903c8.571599 5.816442 13.775785 9.796114 23.26577 2.1429 7.347085-5.816442 12.857399 2.755157 15.918684 6.428699 4.591928 6.122571-4.591928 6.122571-7.347085 7.959343-18.061584 11.632885-37.041555 22.041256-55.103139 33.67414-7.347085 4.898057-10.408371-0.612257-15.306427-3.061285-5.816442-3.061286-5.510314-6.4287-3.673543-11.939014 6.734828-19.286099 12.857399-38.878326 19.286099-58.164424 1.224514-5.204185 4.2858-9.183857 9.796113-9.183857 4.898057 0.306129 8.265471 3.367414 7.347085 8.877728-3.367414 9.489985-4.2858 16.224813 5.816443 23.26577z m-12.245142 8.265471c-10.408371 2.449028-5.816442 13.469656-10.102242 20.510613 7.347085-3.673543 17.143199-4.2858 18.97997-13.469657 0.612257-2.1429-6.122571-7.653214-8.877728-7.040956zM292.658894 740.180568c0 0.612257-2.449028 2.755157-3.061286 2.755157-3.979671-2.1429-9.796114-3.061286-7.959342-11.632885 4.898057 2.755157 10.102242 3.367414 11.020628 8.877728zM225.92287 685.689686c4.591928 4.591928 11.020628 7.347085 13.469656 14.081913 8.571599 3.673543 14.69417 10.102242 20.816742 16.530942 7.653214 2.449028 14.69417 6.122571 18.367713 14.694171-11.020628 1.836771-15.612556-6.122571-21.428999-11.632885-8.265471-2.449028-12.551271-9.489985-18.367713-15.000299-5.204185-5.204185-12.551271-7.653214-15.612556-15.000299-6.734828-5.510314-15.918685-9.183857-18.061584-18.97997-5.204185-2.755157-11.020628-5.510314-11.326757-14.388042-4.898057-1.530643-7.653214-4.2858-10.102242-7.347085-0.306129-0.306129-0.612257-0.612257-0.612257-0.918386l-7.347085-10.102242c5.204185-1.836771 7.040957 0.306129 8.265471 4.285799 3.979671 3.979671 11.020628 6.122571 11.326756 14.388042 6.4287 2.755157 10.714499 6.122571 12.551271 11.939014 6.4287 5.510314 14.081913 9.796114 18.061584 17.449327zM201.432586 587.422422c4.898057-8.877728 12.245142-14.69417 21.428998-18.367713 15.000299-6.122571 28.776084-4.2858 41.021226 6.428699 11.020628 9.489985 15.000299 27.245441 9.489985 40.10284-2.1429 4.898057-4.2858 13.469656-11.326756 10.102242-4.591928-2.1429-11.939013-8.265471-4.591928-16.83707 5.816442-7.040957 2.755157-15.000299-2.755157-20.510613-5.204185-5.510314-11.939013-7.653214-20.510613-4.591928-9.796114 3.367414-15.000299 11.632885-22.959641 16.83707-0.306129 3.979671-0.612257 8.265471-0.612258 12.245142 2.1429 11.020628 8.877728 16.224813 20.204485 15.306428 7.959342-0.612257 12.857399 6.734828 12.857399 12.245142 0 5.204185-7.653214 6.122571-13.469656 5.816442-16.530942-0.612257-26.633184-10.102242-33.061884-24.490284 0.918386-1.530643 2.449028-2.755157 4.2858-3.673542 1.530643-0.612257 2.449028-1.836771 3.673543-3.061286 0.306129-6.4287-1.836771-13.163528-1.224515-19.592227-0.306129-0.612257-0.918386-1.224514-1.224514-1.836771-0.918386-2.1429-2.1429-3.979671-1.224514-6.122571zM255.311211 540.890882c0-13.163528-15.612556-19.898356-7.347085-33.061883 3.673543-2.755157 0.918386-5.816442 0.306128-8.877728-2.755157-4.898057-3.673543-10.102242-0.306128-14.388042 1.224514-1.530643 7.347085-1.530643 7.959342 1.224514 2.755157 13.469656 10.102242 5.510314 16.530942 4.591928 4.591928-0.918386 8.877728-4.591928 15.000299-0.918385-10.408371 12.551271-3.367414 24.184155 4.591928 37.347683-16.530942-6.734828-25.714798 3.979671-36.735426 14.081913z"  horiz-adv-x="1024" />

    
    <glyph glyph-name="mendianxiaoshoutongji" unicode="&#58926;" d="M857.6 304c-19.2 0-32-12.8-32-32v-224c0-6.4-3.2-6.4-3.2-6.4H201.6s-3.2 3.2-3.2 6.4v224c0 19.2-12.8 32-32 32s-32-12.8-32-32v-224c0-38.4 32-70.4 67.2-70.4h620.8c38.4 0 67.2 32 67.2 70.4v224c0 16-12.8 32-32 32zM966.4 556.8c0 3.2 0 6.4-3.2 6.4l-76.8 169.6C870.4 768 832 793.6 787.2 793.6H240c-48 0-83.2-25.6-96-60.8l-83.2-172.8v-3.2c-6.4-16-9.6-35.2-9.6-54.4 0-64 38.4-121.6 96-150.4 25.6-12.8 54.4-19.2 86.4-19.2 54.4 0 105.6 22.4 140.8 60.8 35.2-38.4 83.2-60.8 140.8-60.8 54.4 0 105.6 22.4 137.6 60.8 35.2-38.4 86.4-60.8 140.8-60.8 32 0 64 6.4 86.4 19.2 57.6 28.8 96 86.4 96 150.4 0 19.2-3.2 38.4-9.6 54.4z m-150.4-38.4h-608c-19.2 0-32 12.8-32 32s12.8 32 32 32h611.2c19.2 0 32-12.8 32-32s-16-32-35.2-32z"  horiz-adv-x="1024" />

    
    <glyph glyph-name="xiangzuo2" unicode="&#59082;" d="M326.527 385.652l368.782-398.626 0.652 0.605L327.742 385.65l368.217 394.727-0.65 0.607-368.501-395.029-0.281-0.303zM738.365 781.854L368.689 385.565l369.655-399.571-44.674-41.375-408.035 441.057 19.175 20.678L693.83 823.38z"  horiz-adv-x="1024" />

    
    <glyph glyph-name="zhankai" unicode="&#58990;" d="M896 547.2l-384-384-384 384c-12.8 12.8-32 12.8-44.8 0s-12.8-32 0-44.8L489.6 96c12.8-12.8 32-12.8 44.8 0l406.4 406.4c12.8 12.8 12.8 32 0 44.8-12.8 12.8-32 12.8-44.8 0z"  horiz-adv-x="1024" />

    
    <glyph glyph-name="zhedie" unicode="&#58991;" d="M896 92.8l-384 384-384-384c-12.8-12.8-32-12.8-44.8 0-12.8 12.8-12.8 32 0 44.8L489.6 544c12.8 12.8 32 12.8 44.8 0l406.4-406.4c12.8-12.8 12.8-32 0-44.8-12.8-12.8-32-12.8-44.8 0z"  horiz-adv-x="1024" />

    
    <glyph glyph-name="circle-question" unicode="&#58910;" d="M964.512 377.792c0-248.256-201.248-449.504-449.504-449.504s-449.504 201.248-449.504 449.504c0 248.256 201.248 449.504 449.504 449.504s449.504-201.248 449.504-449.504zM515.008 827.392c-248.608 0-449.504-200.992-449.504-449.504 0-248.608 200.992-449.504 449.504-449.504 248.608 0 449.504 200.992 449.504 449.504s-200.896 449.504-449.504 449.504zM547.104 120.992h-64.384v64.384h64.384v-64.384zM598.784 340.384c-32.096-28.608-51.712-47.296-51.712-79.104v-43.2h-64.384v43.2c0 62.496 40.608 98.4 73.696 127.616 34.016 29.792 54.592 50.496 54.592 86.304-0.217 53.215-43.298 96.295-96.492 96.512-53.235-0.217-96.315-43.298-96.532-96.492l-0-32.116h-63.2v32.096c0 88.608 72.416 160.288 160.288 160.288 88.608 0 160.288-72.384 160.288-160.288-0.096-67.488-42.016-105.312-76.608-134.816z"  horiz-adv-x="1024" />

    
    <glyph glyph-name="fujin1" unicode="&#58911;" d="M510.608-63.056c-225.232 0-350.928 49.632-350.928 132.848 0 47.968 72.848 90 173.68 113.376l23.84-41.664c-85.92-14.944-141.28-41.44-141.28-71.68 0-46.72 142.144-76.752 294.688-76.752 152.56 0 294.704 30.032 294.704 76.752 0 30.272-55.376 56.768-141.28 71.68l23.84 41.664c100.832-23.376 173.664-65.408 173.664-113.376 0-81.296-132.848-132.848-350.928-132.848zM510.592 830.8c-167.088 0-302.528-135.216-302.528-302 0-58.4 19.088-111.248 47.888-157.424 4.064-6.816 9.12-13.408 12.832-18.592s222.272-244.112 222.272-244.112c7.392-9.04 14.656-16.752 24.288-16.752s18.528 6.88 26.656 16.752c0 0 193.808 225.52 202 234.384 4.464 4.464 12.368 11.504 20.736 22.496a299.04 299.04 0 0 1 48.384 163.232c0 166.816-135.456 302.016-302.528 302.016z m0.016-418.528c-64.48 0-116.752 52.176-116.752 116.528 0 64.368 52.272 116.56 116.752 116.56s116.752-52.192 116.752-116.56c-0.016-64.352-52.272-116.528-116.752-116.528zM510.608 589.216a60.48 60.48 0 0 1-60.512-60.416c0-33.328 27.088-60.384 60.512-60.384s60.512 27.056 60.512 60.384a60.48 60.48 0 0 1-60.512 60.416z"  horiz-adv-x="1024" />

    
    <glyph glyph-name="gouwuche1" unicode="&#59073;" d="M858.209524 196.266667H351.085714l-14.628571 70.704762L860.647619 335.238095c9.752381 2.438095 19.504762 9.752381 19.504762 19.504762l58.514286 292.571429c2.438095 7.314286 0 14.628571-4.876191 19.504762-4.87619 7.314286-12.190476 9.752381-19.504762 9.752381h-658.285714L243.809524 749.714286c-2.438095 7.314286-7.314286 14.628571-14.628572 17.066666L117.028571 813.104762c-12.190476 4.87619-26.819048 0-31.695238-12.190476-4.87619-12.190476 0-26.819048 14.628572-31.695238l97.523809-41.447619 109.714286-560.761905c2.438095-12.190476 12.190476-19.504762 24.380952-19.504762h526.628572c14.628571 0 24.380952 9.752381 24.380952 24.380952s-12.190476 24.380952-24.380952 24.380953z m-531.504762 119.466666L265.752381 627.809524h619.27619l-48.761904-246.247619-509.561905-65.828572zM424.228571 25.6m-48.761904 0a48.761905 48.761905 0 1 1 97.523809 0 48.761905 48.761905 0 1 1-97.523809 0ZM753.371429 25.6m-48.761905 0a48.761905 48.761905 0 1 1 97.523809 0 48.761905 48.761905 0 1 1-97.523809 0Z"  horiz-adv-x="1024" />

    
    <glyph glyph-name="zhiding" unicode="&#59074;" d="M899.657143 805.790476H124.342857c-14.628571 0-24.380952-9.752381-24.380952-24.380952s9.752381-24.380952 24.380952-24.380953H902.095238c14.628571 0 24.380952 9.752381 24.380952 24.380953-2.438095 14.628571-12.190476 24.380952-26.819047 24.380952zM529.066667 666.819048c-2.438095 2.438095-4.87619 4.87619-7.314286 4.87619-4.87619 2.438095-12.190476 2.438095-19.504762 0-2.438095-2.438095-4.87619-2.438095-7.314286-4.87619L204.8 376.685714c-9.752381-9.752381-9.752381-24.380952 0-34.133333 9.752381-9.752381 24.380952-9.752381 34.133333 0L487.619048 588.8v-604.647619c0-14.628571 9.752381-24.380952 24.380952-24.380952s24.380952 9.752381 24.380952 24.380952V588.8l248.685715-248.685714c9.752381-9.752381 24.380952-9.752381 34.133333 0 9.752381 9.752381 9.752381 24.380952 0 34.133333l-290.133333 292.571429z"  horiz-adv-x="1024" />

    
    <glyph glyph-name="zhuye" unicode="&#59075;" d="M936.228571 393.752381l-109.714285 104.838095c2.438095 2.438095 2.438095 7.314286 2.438095 9.752381V693.638095c0 14.628571-9.752381 24.380952-24.380952 24.380953h-190.171429c-7.314286 0-12.190476-2.438095-17.066667-7.314286L533.942857 774.095238c-12.190476 12.190476-31.695238 12.190476-43.885714 0L87.771429 393.752381c-9.752381-9.752381-12.190476-24.380952-7.314286-36.571429s17.066667-19.504762 31.695238-19.504762h75.580952v-312.07619c0-21.942857 17.066667-39.009524 39.009524-39.009524h190.171429c21.942857 0 39.009524 17.066667 39.009524 39.009524v192.609524h121.904761v-192.609524c0-21.942857 17.066667-39.009524 39.009524-39.009524h190.171429c21.942857 0 39.009524 17.066667 39.009524 39.009524V337.67619h75.580952c14.628571 0 24.380952 7.314286 31.695238 19.504762-2.438095 12.190476-4.87619 26.819048-17.066667 36.571429zM782.628571 669.257143v-126.780953l-136.533333 126.780953h136.533333z m34.133334-282.819048c-14.628571 0-24.380952-9.752381-24.380953-24.380952v-326.704762h-170.666666v195.047619c0 21.942857-17.066667 39.009524-39.009524 39.009524h-141.409524c-21.942857 0-39.009524-17.066667-39.009524-39.009524v-192.609524h-170.666666V364.495238c0 14.628571-9.752381 24.380952-24.380953 24.380952H148.72381L512 727.771429l363.27619-341.333334h-58.514285z"  horiz-adv-x="1024" />

    
    <glyph glyph-name="mendian" unicode="&#59099;" d="M976.845 406.277s-86.673 341.988-94.351 358.899c-9.608 15.682-43.45 82.331-134.418 77.212h-464.45c-91.438 5.12-125.471-61.524-135.12-77.212-7.715-16.913-94.846-358.899-94.846-358.899l-1.661-7.841v-19.3c0-63.958 71.152-115.814 135.12-115.814 40.299 0 95.063 20.615 115.808 51.847 20.739-31.232 56.207-51.847 96.511-51.847 42.112 0 87.203 22.549 113.194 56.153 0.792-1.313 1.772-2.495 2.62-3.776v5.527h2.397v-5.527c0.839 1.282 1.813 2.464 2.601 3.776 25.854-33.605 70.718-56.153 112.612-56.153 40.093 0 75.372 20.615 96.012 51.847 20.634-31.232 75.115-51.847 115.207-51.847 63.634 0 134.418 51.851 134.418 115.814v19.3l-1.656 7.841z m-789.731 107.84h656.272v-102.4H187.114v102.4z m636.97-424.514H206.411V205.417h-77.206v-193.019c0-53.304 43.213-96.512 96.512-96.512h579.067c53.3 0 96.507 43.208 96.507 96.512V205.417h-77.212v-115.814h0.006z"  horiz-adv-x="1024" />

    
    <glyph glyph-name="guwenxinxi" unicode="&#59102;" d="M1539.19936322 378.75895053v84.96052895h-39.00323231v-84.96052895a284.81429949 284.81429949 0 0 0-30.23506266-142.10479884 247.32282076 247.32282076 0 0 0-110.66033439-93.12399685 221.62301707 221.62301707 0 0 0 30.23506439-34.7703234 265.46385833 265.46385833 0 0 1 119.42850053 110.66033445l3.32585718 6.34936252a1382.34711157 1382.34711157 0 0 0 115.49794336-113.079138l30.23506444 34.16562156q-60.47012706 57.74897169-132.12722918 118.21909877a431.45435907 431.45435907 0 0 1 13.30342864 113.68383979zM1471.77517185 533.86482802h-68.33124496v-295.69892276h37.79383054v258.20744224h156.61762925v-258.20744224h37.79382875v295.69892276h-120.94025412l16.6292858 70.44769674h128.19667023V643.01340707H1394.0710572v-38.70088231h92.21694508l-14.51283043-70.44769674zM1262.54852984 198.86032114v295.69892277h65.00538778v-124.56846126q0-17.23398578-8.76816787-21.16454473a81.9370218 81.9370218 0 0 0-41.11968768 0 233.41469213 233.41469213 0 0 0 7.86111785-46.25964842 98.26395757 98.26395757 0 0 1 63.19128243 13.0010786q15.41988221 11.48932505 15.41988221 51.3996074v167.50225253H1224.75470109v-326.53868719a65.00538601 65.00538601 0 0 0-17.8386876-48.9808038l24.49040193-32.95621802a120.94025413 120.94025413 0 0 0 32.35151803 25.09510194q30.23506442 17.53633758 113.38148798 60.47012706A161.45524003 161.45524003 0 0 0 1372.90651247 256.00459284q-55.33016631-32.049168-110.35798263-57.1442717zM1139.79417216 115.41154578999999a572.04740436 572.04740436 0 0 1 47.77140021 256.99804221V603.70782475H1372.90651247V643.61810885h-224.34417245v-253.97453504q0-160.85053822-40.5149841-244.2993154a201.36552411 201.36552411 0 0 0 31.74681624-29.93271262zM1707.91101933 564.7045924500001h43.23613949v-447.4789431h-43.23613949zM1847.89936282 594.63730507Q1798.01150902 648.1533678000001 1765.96234101 677.78373044l-30.23506442-30.23506441q28.42095905-30.23506442 76.19236106-86.77463253zM2156.29701241 205.81438726q0-44.44554306-40.51498589-44.44554484t-88.89108611 3.32585716q6.65171433-30.23506442 8.7681679-46.25964667h90.70519145q72.8665039 0 72.86650393 82.8440736V639.98989994h-317.46816929v-41.42203591h274.53437801zM2070.73178169 498.18745287h-235.5311457v-260.92859941h39.91028409v32.351518h195.62086161z m-39.91028413-186.24799372h-155.71057748v143.91890423h155.40822749zM2436.87840295 415.34337749h327.74809077v-38.70088052H2436.87840295zM2436.87840295 507.25797074h327.74809077v-38.70088053H2436.87840295zM2442.92541547 113.89979219999998h42.63144127v34.16562338h230.39118497v-34.16562338h42.63143949v208.92429024H2442.92541547z m42.63144127 170.22340969h230.39118497V186.46394610000004H2485.55685674zM2406.03863855 600.3819676v-39.91028412h391.24172316V600.3819676h-191.99265442l24.1880519 13.00107684q-19.35044116 34.16562158-39.30558233 65.0053878L2552.07399634 658.4332893000001q18.14103759-30.23506442 34.77032337-58.35367349zM2317.75225241 439.53142937V113.89979219999998h41.11968592V523.28255476a1368.43898113 1368.43898113 0 0 1 52.91136273 141.50009885l-43.23614126 12.69872683a956.93976501 956.93976501 0 0 0-122.75435949-275.13907979q9.3728697-22.97864831 18.44338937-46.86434844a770.08707131 770.08707131 0 0 1 53.51606273 84.05347716zM3338.18565163 177.09107643000004l35.67737517 28.11860904q-41.1196859 52.60901095-80.42527001 96.44985222l-32.35151799-25.6998037q40.51498592-46.25964663 77.09941283-98.86865756zM3200.61611175 200.67442472000005q-7.2564161-30.23506442-51.70195918-30.23506261h-123.35905946q-36.58442695 0-36.58442695 35.37502515v82.84407358h-42.32908947v-89.19343789a63.19128242 63.19128242 0 0 1 72.26180209-70.75004853h139.98834529q69.84299675 0 82.84407359 54.12076274 6.65171433 23.8857001 13.30342861 63.49363421-22.67629831 7.8611161-43.23614127 16.6292858a523.36895234 523.36895234 0 0 0-11.18697325-62.28423245zM3073.93119508 321.00997884000003l-30.2350644-26.30450548q30.23506442-30.23506442 70.44769853-79.82056821l33.86327156 30.23506443q-40.21263412 43.84084306-74.07590569 75.89000926zM2904.3124872 279.89029296l-40.5149841 14.21047862a758.59774806 758.59774806 0 0 0-51.70195917-122.75435769q23.28099833-8.46581792 41.11968592-16.62928578 26.90920726 56.84191989 51.09725735 125.17316485zM2931.22169447 327.96404316999997H3247.48046017v-17.83868757h42.63143948V621.84886235h-221.32066528q9.97757149 22.67629831 19.04808939 46.86434841l-43.23614127 12.09402505a596.53780624 596.53780624 0 0 0-19.65279117-58.95837346h-136.66248811v-311.72350675h42.63144126z m0 255.18393865H3247.48046017v-47.46905023H2931.22169447z m0-84.05347717H3247.48046017v-48.07375201H2931.22169447z m0-84.35582895H3247.48046017V367.87432726H2931.22169447zM3436.14725746 851.6353455H217.62473051A54.72546454 54.72546454 0 0 1 163.50396597 796.30517921v-796.39157679A54.72546454 54.72546454 0 0 1 217.62473051-55.41656393000005h3218.52252695a54.72546454 54.72546454 0 0 1 53.21371272 55.33016635V796.30517921A54.72546454 54.72546454 0 0 1 3436.14725746 851.6353455zM292.91003978 95.75875464a287.53545485 287.53545485 0 0 0 283.60489592 291.46601379 154.1988239 154.1988239 0 0 0-151.17531857 156.31527929 151.17531853 151.17531853 0 1 0 304.16474066 0 154.1988239 154.1988239 0 0 0-151.17531854-156.31527929A287.53545485 287.53545485 0 0 0 858.91043158 95.75875464z m3144.44661947-90.70519151H1002.52698402V791.16521845h2433.92262343z"  horiz-adv-x="3648" />

    
    <glyph glyph-name="lianxidianhua" unicode="&#59103;" d="M1682.93743526 591.97459435Q1637.52903452 625.49757272 1581.45423309 659.32530732l-22.85657765-30.47543575q50.89397838-33.52298002 98.4356579-71.312521zM1148.09353458 357.31373756999994l5.48557933-49.37020543 73.75055436 26.51362944v-145.06307536q0-30.47543577-22.55182308-30.47543578-17.37099837 0-49.67496001 3.35229718 4.57131554-24.07559436 6.70459599-47.84643414h55.46529393q51.50348589 0 51.50348586 64.30317038v170.05293182l70.09350262 24.38034896a368.44801894 368.44801894 0 0 0-3.35229715 44.79888989l-66.74120547-22.85657601v121.90174312h60.95087156v42.66560939h-60.95087156V668.4679384h-41.14183811v-108.79730737h-71.00776471v-41.44659271h71.00776471v-136.5299518zM1280.9664363 178.42292927000005a379.72393047 379.72393047 0 0 0 30.47543577-35.04675131 685.6973066 685.6973066 0 0 1 132.87290004 220.33740103A428.17987381 428.17987381 0 0 1 1515.62729143 224.13608294999995a459.56957337 459.56957337 0 0 0-170.05293184-79.84564121q15.84722707-21.94231388 28.03740073-40.83708524a579.03328139 579.03328139 0 0 1 170.05293181 91.42630735 419.03724273 419.03724273 0 0 1 134.09191841-85.94072801q14.01870118 20.11378801 33.52298003 46.01790825A331.87749635 331.87749635 0 0 0 1576.57816296 222.61231165000004a421.78003238 421.78003238 0 0 1 97.82614876 165.78637087v39.61806684h-209.06148949q10.36164777 33.52298002 18.89477133 69.17923886H1698.47990607v42.66560939h-204.79492853q12.19017365 60.95087155 20.11378801 127.69207702l-42.66560942 4.57131552q-7.31410519-69.78874801-20.11378801-132.26339254H1384.58291725q13.409192 43.57987318 26.20887483 95.99762456l-42.05610188 8.53312188a870.9879563 870.9879563 0 0 0-28.64690823-104.22599181v-43.27511862h101.48320048A703.37305954 703.37305954 0 0 0 1280.9664363 178.42292927000005z m347.11521424 209.36624406A344.37242459 344.37242459 0 0 0 1546.10272719 251.56397615000003a374.84786035 374.84786035 0 0 0-70.70301012 136.22519718zM1720.42221996 344.51405474l12.79968281-47.84643413L1820.38165084 330.80010815v-143.23454782q0-27.73264611-24.68510354-27.73264611a419.95150653 419.95150653 0 0 0-60.95087155 3.96180636q3.96180635-24.07559436 6.70459599-48.45594333h64.30316872q58.20808191 0 58.20808357 62.77939742v168.52916053l95.08335907 34.74199675a441.89382041 441.89382041 0 0 0-4.57131553 46.01790825q-44.18938238-16.76148917-91.42630731-33.21822544V513.6527228h83.50269462v43.27512026H1866.0948045V666.02990332H1820.38165084v-110.62583322h-91.426309V513.6527228h91.426309v-134.70142592q-48.15118871-17.67575296-99.95943088-34.43724214zM2135.19290174 205.85082080999996q0-40.22757602-34.74199671-40.22757436t-94.47384987 4.57131553a415.38019097 415.38019097 0 0 0 8.83787644-52.72250425h97.52139417q70.09350261 0 70.0935026 73.75055436V580.39392823H2277.51318747V624.27855602H1955.69258595v-43.88462779h179.80507039zM2368.93949477 274.42055212h159.99603866V208.89836504000004a70.09350261 70.09350261 0 0 1 78.93137907-79.54088828h149.02488171a69.48399344 69.48399344 0 0 1 76.18858944 53.94152264 779.2568944 779.2568944 0 0 1 15.23771789 78.93137909q-30.47543577 10.36164777-46.32266284 17.98050588a375.76212413 375.76212413 0 0 0-12.79968283-81.0646579q-8.5331219-25.90412022-46.62741744-25.90412191H2612.74298264a30.47543577 30.47543577 0 0 0-35.96101508 35.04675132v66.13169624h207.23296361V597.7649265800001h-207.23296361V671.51548097h-47.23692496v-73.75055439h-206.62345609v-362.96244128H2368.93949477z m206.62345609 280.37401049h160.60554615v-97.82615044h-160.30079156z m0-138.66323399h160.60554615v-98.43565791h-160.30079156zM2368.93949477 554.489808h159.99603866v-97.82614874H2368.93949477z m0-138.66323394h159.99603866v-98.43565793H2368.93949477zM3202.44266637 361.27554392h-124.94928733v-254.77464313h43.57987319V147.94749349999995h208.75673488v-40.83708353H3374.62887867V361.27554392h-126.47305864v95.99762285h173.70998359v42.66561109h-173.70998359V598.9839432900001q81.06465956 6.09508682 148.41537251 12.7996845l-10.05689482 42.05610023q-154.51045936-16.15198164-339.80110904-23.46608519 5.48557763-21.33280471 10.05689314-42.66560941l146.58684667 8.22836731v-95.69286827h-181.32884336v-42.66561108h180.41458124z m127.69207534-41.44659272v-131.04437414h-208.75673488v131.04437414zM2938.83014508 208.89836504000004a68.56973134 68.56973134 0 0 0-18.89476966-51.80824049l25.90412026-39.61806682a1364.99477179 1364.99477179 0 0 0 112.45435914 84.11220213q-2.13328047 20.11378801-3.96180805 51.19873295-45.40839906-35.3515059-72.531536-53.63676634v276.10744786H2868.73664248v-41.44659274h70.0935026zM3014.40922702 569.1180167q-27.42789153 30.47543577-88.37876475 95.38811368L2891.59322014 635.5544675599999a1106.56307521 1106.56307521 0 0 0 83.50269463-99.04516711zM3493.48307752 848.882518H249.67768675a55.16053933 55.16053933 0 0 1-54.24627556-55.77004851v-802.72297959A55.16053933 55.16053933 0 0 1 249.67768675-65.38055691H3493.48307752a55.16053933 55.16053933 0 0 1 54.24627722 55.77004681V793.11246949A55.16053933 55.16053933 0 0 1 3493.48307752 848.882518z m-2590.41204584-693.01141179l-28.03740237-28.95166283a124.33977817 124.33977817 0 0 0-42.66560942-28.03740237 161.51980993 161.51980993 0 0 0-60.95087154-11.27590988c-85.02646591 0-219.42313891 81.36941414-308.4114112 172.7957198-112.14960451 114.8923925-179.50031747 274.27892196-143.84405697 365.70523096a131.95863794 131.95863794 0 0 0 21.02805011 35.6562605l1.82852757 3.04754256 2.74278796 3.65705345 30.47543579 30.47543577a18.89476965 18.89476965 0 0 0 27.12313859 0l13.40919202-13.71394659 115.80665628-118.85420053a19.80903343 19.80903343 0 0 0 0-27.73264613l-30.47543579-30.47543576-21.02805178-21.63755929s-10.97115695-72.53153769 67.35071464-152.37717889S692.79052385 262.53513141999997 692.79052385 262.53513141999997l52.41774965 53.63676802a18.89476965 18.89476965 0 0 0 27.12313863 0l129.2158466-132.26339252a20.11378801 20.11378801 0 0 0 0-27.73264613z m2590.41204584-159.69128406H1040.82000184V787.93164645h2453.27258487z"  horiz-adv-x="3701" />

    
    <glyph glyph-name="xiche" unicode="&#58923;" d="M980.97804743 379.33117667c-12.00621113 24.01242112-21.34502173 38.68719559-41.35459612 41.35459613-20.01073949 2.66856448-68.03558173 5.33596387-118.72898845 8.00452835-57.36365283 74.70582784-117.39470621 141.40712733-134.73688007 141.40712733H336.63970077c-16.00789277 0-77.37439232-66.70129949-133.40376292-140.07400903-50.69340672-2.66856448-98.71824896-5.33596387-118.72898844-8.00452836s-29.34838499-17.34217501-41.35459499-41.35459612c-12.00621113-24.01242112-9.33881059-30.68266723 16.00789276-41.35459612 25.34670336-10.67192889 49.35912448-16.00789277 49.35912335-16.00789277s-30.68266723-57.36365283-44.02315947-82.71035619c-8.00452835-14.67477447-9.33881059-14.67477447-9.3388106-44.02316061v-277.47945358c0-28.01526784 6.67024611-41.35459613 33.35123172-41.35459613h145.40997291c24.01242112 0 32.01694947 16.00789277 32.01694947 33.35123172v62.69961671h484.25476323v-62.69961671c0-17.34217501 9.33881059-33.35123171 32.01694948-33.35123172h146.7430912c26.6809856 0 32.01694947 13.34049223 32.01694948 41.35459613 1.33428224 32.01694947 0 212.11127239 0 246.7956224 0 46.69056 0 60.03105337-8.00452836 74.70582784-14.67477447 24.01242112-40.02147783 82.71035619-40.02147783 82.71035619s22.67813888 5.33596387 49.35912448 16.00789277c28.01643179 9.33997454 30.68383232 16.01022179 18.67762119 40.02264177zM336.63970077 123.19674368000005s-140.07400903 5.33596387-178.76004068 8.00452835c-49.35912448 4.00168163-33.35123171 72.03726336-32.01694948 90.7148857 0 1.33428224 122.73067008-10.67192889 162.75214792-16.00789277 41.35459613-6.67024611 49.35912448-25.34670336 49.35912448-33.35123171-1.33428224-6.6714112-1.33428224-40.02264291-1.33428224-49.36028957z m174.75835904 197.43649792H237.92145181c-14.67477447 0 10.67192889 58.69793507 48.02484224 106.72277731 57.36365283 72.03726336 72.03726336 66.70129949 81.37607395 66.70129949h285.48281799c9.33881059 0 25.34670336 2.66856448 81.3760751-66.70129949 45.35744285-56.02937059 64.03389895-106.72277731 48.02484224-106.72277731H511.39805981z m354.85268195-189.43196957c-38.68719559-4.00168163-180.09432291-8.00452835-180.09432405-8.00452835v49.35912448c0 8.00452835 8.00452835 26.6809856 49.35912448 33.35123171 40.02147783 6.67024611 162.75214791 17.34217501 162.75214904 16.00789277 1.33428224-18.67645725 17.34333895-86.71203783-32.01694947-90.71372061zM283.27889465 592.7767313100001c26.6809856 0 48.02484224 18.67645725 48.02484224 42.68887836 0 9.33881059-2.66856448 17.34217501-8.00452836 24.01242112h1.3342811l-41.35459498 62.69961671-41.35459612-62.69961671h1.33428224c-5.33596387-6.67024611-8.00452835-14.67477447-8.0045295-24.01242112 0-22.67930283 21.34385664-42.68887837 48.02484338-42.68887836z m177.42575844 42.68887836c0-24.01242112 21.34502173-42.68887837 48.02484224-42.68887836 26.6809856 0 48.02484224 18.67645725 48.02484224 42.68887836 0 9.33881059-2.66856448 17.34217501-8.00452836 24.01242112h1.33428224l-41.35459612 62.69961671-41.35459613-62.69961671h1.33428224c-4.00168163-6.67024611-8.00452835-14.67477447-8.00452835-24.01242112z m229.45461134 25.34670336c-5.33596387-6.67024611-8.00452835-14.67477447-8.00452836-24.01242112 0-24.01242112 21.34502173-42.68887837 48.02484224-42.68887836s48.02484224 18.67645725 48.02484224 42.68887836c0 9.33881059-2.66856448 17.34217501-8.00452836 24.01242112l-41.35459612 62.69961671-41.35459612-62.69961671h2.66856448z m-304.16043918 100.0525312c26.6809856 0 48.02484224 18.67645725 48.02484224 42.68887836 0 9.33881059-2.66856448 17.34217501-8.00452836 24.01242112h1.33428224L385.99882525 890.26576043l-41.35459613-62.69961672h1.33428224c-5.33596387-6.67024611-8.00452835-14.67477447-8.00452835-24.01242112 0-24.01242112 21.34502173-42.68887837 48.02484224-42.68887836z m226.78604686 0c26.6809856 0 48.02484224 18.67645725 48.02484338 42.68887836 0 9.33881059-2.66856448 17.34217501-8.0045295 24.01242112h1.33428224L612.78487211 890.26576043l-41.35459499-62.69961672h1.3342811c-5.33596387-6.67024611-8.00452835-14.67477447-8.00452835-24.01242112 0-24.01242112 21.34385664-42.68887837 48.02484224-42.68887836z"  horiz-adv-x="1024" />

    
    <glyph glyph-name="tubiaozhizuomoban" unicode="&#58883;" d="M717.266 580.907L9.433-127H1022V885.553L717.266 580.907z m195.057-304.176L679.769 34.667c-0.088-0.087-0.177-0.087-0.177-0.204-0.117 0-0.117-0.206-0.234-0.206-1.877-1.877-4.048-3.051-6.308-4.342-1.086-0.587-1.878-1.467-3.082-1.966-3.462-1.497-7.1-2.171-10.855-2.171s-7.423 0.674-10.973 2.171c-1.115 0.499-1.996 1.379-3.081 1.966-2.171 1.291-4.461 2.465-6.338 4.46-0.088 0-0.088 0.205-0.206 0.205-0.058 0.087-0.175 0.087-0.175 0.177L524.027 155.993c-11.179 11.765-10.975 30.748 0.587 42.221 11.472 11.502 29.752 11.268 41.048-0.586l93.744-99.173 211.605 220.408c11.267 11.767 29.664 11.767 41.02 0.206 11.384-11.589 11.501-30.485 0.292-42.338z m0 0"  horiz-adv-x="1024" />

    
    <glyph glyph-name="bianji" unicode="&#59297;" d="M965.818182-1.954909a34.909091 34.909091 0 1 0 0-69.818182h-884.363637a34.909091 34.909091 0 1 0 0 69.818182h884.363637z m-0.395637 633.134545L411.415273 77.149091l-215.970909-22.062546 22.085818 215.97091 481.722182 481.745454v0.023273l72.285091 72.261818c32.488727 32.488727 89.134545 32.488727 121.623272 0l72.261818-72.285091a85.457455 85.457455 0 0 0 25.204364-60.811636c0-22.970182-8.96-44.567273-25.204364-60.811637zM273.617455 133.259636l105.984 10.821819 439.482181 439.505454-95.138909 95.162182-439.505454-439.482182-10.821818-106.007273zM832.349091 780.450909a16.058182 16.058182 0 0 1-11.450182-4.747636l-47.592727-47.569455 95.162182-95.185454 47.569454 47.592727a16.197818 16.197818 0 0 1 0 22.900364l-72.238545 72.261818a16.104727 16.104727 0 0 1-11.450182 4.747636z"  horiz-adv-x="1024" />

    
    <glyph glyph-name="fenzu" unicode="&#58913;" d="M988.262301 895.999898A35.839996 35.839996 0 1 1 1023.999898 860.057501 35.839996 35.839996 0 0 1 988.262301 895.999898zM988.262301 737.279913A35.839996 35.839996 0 1 1 1023.999898 701.439917a35.942396 35.942396 0 0 1-35.737597 35.839996zM378.879962 435.199944H81.919992a81.919992 81.919992 0 0 0-81.919992 81.919991V814.079906a81.919992 81.919992 0 0 0 81.919992 81.919992h296.95997a81.919992 81.919992 0 0 0 81.919992-81.919992v-296.959971a81.919992 81.919992 0 0 0-81.919992-81.919991z m-266.239973 71.679993h235.519976a40.959996 40.959996 0 0 1 40.959996 40.959995V783.359909a40.959996 40.959996 0 0 1-40.959996 40.959996H112.639989a40.959996 40.959996 0 0 1-40.959996-40.959996v-235.519977a40.959996 40.959996 0 0 1 40.959996-40.959995zM378.879962-128H81.919992a81.919992 81.919992 0 0 0-81.919992 81.919992V250.879962a81.919992 81.919992 0 0 0 81.919992 81.919992h296.95997a81.919992 81.919992 0 0 0 81.919992-81.919992v-296.95997a81.919992 81.919992 0 0 0-81.919992-81.919992z m-266.239973 71.679993h235.519976a40.959996 40.959996 0 0 1 40.959996 40.959996V220.159965a40.959996 40.959996 0 0 1-40.959996 40.959996H112.639989a40.959996 40.959996 0 0 1-40.959996-40.959996v-235.519976a40.959996 40.959996 0 0 1 40.959996-40.959996zM942.079906-128H645.119935a81.919992 81.919992 0 0 0-81.919991 81.919992V250.879962a81.919992 81.919992 0 0 0 81.919991 81.919992h296.959971a81.919992 81.919992 0 0 0 81.919992-81.919992v-296.95997a81.919992 81.919992 0 0 0-81.919992-81.919992z m-266.239974 71.679993h235.519977a40.959996 40.959996 0 0 1 40.959996 40.959996V220.159965a40.959996 40.959996 0 0 1-40.959996 40.959996H675.839932a40.959996 40.959996 0 0 1-40.959995-40.959996v-235.519976a40.959996 40.959996 0 0 1 40.959995-40.959996zM1023.999898 542.719933V517.119935a81.919992 81.919992 0 0 0-81.919992-81.919991H645.119935a81.919992 81.919992 0 0 0-81.919991 81.919991V814.079906a81.919992 81.919992 0 0 0 81.919991 81.919992h153.599985a35.839996 35.839996 0 0 0 35.839997-35.839997A35.839996 35.839996 0 0 0 799.23192 824.319905H670.719933a35.839996 35.839996 0 0 1-35.839996-35.839997v-245.759975a35.839996 35.839996 0 0 1 35.839996-35.839996h245.759975a35.839996 35.839996 0 0 1 35.839997 35.839996 35.839996 35.839996 0 0 0 35.839996 35.839996 35.839996 35.839996 0 0 0 35.839997-35.839996z"  horiz-adv-x="1024" />

    
    <glyph glyph-name="xiaoxi" unicode="&#59020;" d="M512-21.333333a308.458667 308.458667 0 0 0-86.058667 9.152c-59.349333 17.301333-177.642667 4.373333-272.576-14.485334 0 0-8.192-1.344-8.704-1.344a42.282667 42.282667 0 0 0-41.408 52.522667c20.245333 91.733333 28.053333 200.746667 12.330667 274.581333A405.333333 405.333333 0 1 0 512-21.333333z m-172.992 277.333333h213.333333a32 32 0 1 1 0 64h-213.333333a32 32 0 0 1 0-64z m341.333333 234.666667h-341.333333a32 32 0 0 1 0-64h341.333333a32 32 0 1 1 0 64z"  horiz-adv-x="1024" />

    
    <glyph glyph-name="tishi" unicode="&#59089;" d="M608-64H416c-52.8 0-96 43.2-96 96V132.8c0 11.2-6.4 20.8-14.4 27.2C203.2 228.8 142.4 345.6 144 468.8c1.6 193.6 155.2 352 348.8 363.2 102.4 4.8 198.4-30.4 273.6-100.8C840 660.8 880 566.4 880 464c0-121.6-60.8-235.2-161.6-304-9.6-6.4-14.4-16-14.4-27.2V32c0-52.8-43.2-96-96-96z m-96 832h-16c-156.8-8-286.4-142.4-288-299.2-1.6-102.4 48-196.8 132.8-254.4 27.2-17.6 43.2-48 43.2-80V32c0-17.6 14.4-32 32-32h192c17.6 0 32 14.4 32 32V132.8c0 32 16 62.4 43.2 80C766.4 268.8 816 363.2 816 464c0 84.8-33.6 163.2-94.4 220.8C664 739.2 590.4 768 512 768z m160-704H352c-17.6 0-32 14.4-32 32s14.4 32 32 32h320c17.6 0 32-14.4 32-32s-14.4-32-32-32z"  horiz-adv-x="1024" />

    
    <glyph glyph-name="bianji2" unicode="&#58919;" d="M1029.47284331 687.976433l-90.728881-91.862855c-0.341293-0.374321-0.176151-0.957822-0.539463-1.310125s-0.913784-0.19817-1.277096-0.539463L598.37579031 251.48474899999997c-1.310125-2.267947-0.968832-5.086366-2.906495-7.024029s-4.634979-1.541323-6.825859-2.829429l-15.237079-15.413231-243.947404-62.115319 63.997935 240.138134L857.13090531 860.307361a121.863608 121.863608 0 0 0 172.341938-172.330928zM389.64761831 222.397781l136.24195 48.562686-85.763619 85.774629z m142.572384 226.79468c-1.552333-1.563342-2.20189-3.6111-3.512014-5.295546l-44.191935-45.458021 85.081034-84.981948 63.656643 64.51538 239.356463 239.345454-86.15996 86.170969L532.22000231 449.236499zM986.38185431 817.227382a60.926299 60.926299 0 0 1-86.159959 0l-70.691682-70.691682 86.15996-86.159959 70.691681 70.691681a60.90428 60.90428 0 0 1 0 86.15996z m-441.016568-43.07998h-274.135317a60.926299 60.926299 0 0 1-60.926299-60.926299v-609.285009a60.91529 60.91529 0 0 1 60.926299-60.926299H880.47094031a60.91529 60.91529 0 0 1 60.926299 60.926299V439.041748a30.46315 30.46315 0 1 0 60.926299 0v-335.116664A121.852598 121.852598 0 0 0 880.47094031-17.927513999999974H271.18593131A121.852598 121.852598 0 0 0 149.36636131 103.92508399999997V713.221103A121.852598 121.852598 0 0 0 271.18593131 835.073701h274.135317a30.46315 30.46315 0 1 0 0-60.926299z m0 0"  horiz-adv-x="1147" />

    
    <glyph glyph-name="vip" unicode="&#58886;" d="M300.34765883 579.49418425l-32.58236346 0-32.58236346 0c0 0 0-189.36869854 0-228.0765477 1.01005303-51.93628889-65.16472869-65.16472869-65.16472864-65.16472868s-65.16472869 13.22843975-65.16472871 65.16472868c0 44.80075019 0 228.07654768 0 228.0765477l-32.58236345 0-32.58236341 0c-17.98546439 0-32.58236345-14.59689904-32.58236347-32.58236344l0-32.58236348 0-130.32945553 0-65.1647287c1.01005303-3.38856534 114.7225035-131.33950859 130.32945558-130.32945555l65.16472866 0c18.66969402 0 130.32945557 131.01368521 130.32945559 130.32945555l0 65.1647287 0 130.32945553 0 32.58236348C332.93002226 564.8972851999999 318.33312322 579.49418425 300.34765883 579.49418425zM495.84184306 579.49418425l32.58236345 0c18.01804728 0 32.58236345-14.59689904 32.58236345-32.58236344l0-325.82363982c0-17.98546439-14.56431617-32.58236345-32.58236345-32.58236344l-32.58236345 0c-18.01804728 0-32.58236345 14.59689904-32.58236345 32.58236344L463.25947782 546.91181901C463.25947782 564.8972851999999 477.82379577 579.49418425 495.84184306 579.49418425zM903.12139149 579.49418425l-97.74709213 0c-11.30608054 0-21.99309543-2.15043576-32.25654005-5.21317774C768.165241 577.31116559 762.69140385 579.49418425 756.50075418 579.49418425l-32.58236343 0c-18.01804728 0-32.58236345-14.59689904-32.58236345-32.58236344l0-81.4559104 0-32.58236346L691.33602553 221.08818098999996c0-18.01804728 14.56431617-32.58236345 32.58236343-32.58236344l32.58236346 0c18.01804728 0 32.58236345 14.56431617 32.58236345 32.58236344l0 99.40879191C794.45920797 319.68241355 799.80271539 318.83527131000005 805.37429936 318.83527131000005l97.74709213 0c63.01429114 0 114.03827385 51.0239827 114.03827384 114.03827386l0 32.58236344C1017.15966533 528.43761865 966.1356844 579.49418425 903.12139149 579.49418425zM919.41257321 416.58236345c0-17.98546439-14.56431617-32.58236345-32.58236345-32.58236345l-97.74709211 0 0 130.32945557 97.74709211 0c18.01804728 0 32.58236345-14.56431617 32.58236345-32.58236344L919.41257321 416.58236345z"  horiz-adv-x="1024" />

    
    <glyph glyph-name="daishouhuo" unicode="&#58901;" d="M737.3 17c-58.3 0-105.7 47.4-105.7 105.7 0 4.1 0.2 8.2 0.7 12.2h-183c-2.4-1.2-5-1.9-7.9-1.9H383c-6-52.7-50.8-93.8-105.1-93.8-54.2 0-99.1 41.1-105.2 93.8H115c-4.6 0-9.1 1.8-12.4 5.1-3.3 3.3-5.1 7.7-5.1 12.4V423.3c0 3.3 0.9 6.4 2.5 9.1l93.8 153.2c22.2 35.1 54.8 52.7 97.3 52.7h133.3c3 64.4 56.3 115.9 121.4 115.9h259.8c67 0 121.5-54.5 121.5-121.5v-402.1c0-49.1-37.2-89.8-85-95.1 0.5-4.2 0.7-8.5 0.7-12.8 0.2-58.3-47.2-105.7-105.5-105.7z m0 176.5c-38.9 0-70.7-31.8-70.7-70.7 0-38.9 31.8-70.7 70.7-70.7 38.9 0 70.7 31.8 70.7 70.7-0.1 39-31.8 70.7-70.7 70.7z m-459.4 22.4c-39 0-70.7-31.8-70.7-70.7 0-38.9 31.8-70.7 70.7-70.7 38.9 0 70.7 31.8 70.7 70.7 0.1 39-31.7 70.7-70.7 70.7z m0 35.1c50.4 0 92.8-35.5 103.3-82.8 0.8 0.1 1.5 0.2 2.4 0.2h40.3l0.2 435h-133c-30.5 0-51.9-11.5-67.5-36.2l-91.1-148.8v-250.1h42.2c10.6 47.2 52.9 82.7 103.2 82.7z m181.4-80.9h183.4c17.3 34.6 53.3 58.4 94.6 58.4 41.4 0 77.2-23.8 94.6-58.4 33.2 0.1 60.4 27.2 60.4 60.5V632.7c0 47.7-38.8 86.4-86.4 86.4H545.8c-47.6 0-86.4-38.8-86.4-86.4l-0.1-462.6zM316.5 401.8H204.6c-4.6 0-9.1 1.8-12.4 5.1-3.3 3.3-5.1 7.7-5.1 12.4 0 9.7 7.8 17.5 17.5 17.5H299v94.4c0 9.7 7.8 17.5 17.5 17.5s17.5-7.8 17.5-17.5v-111.9c0-9.7-7.8-17.5-17.5-17.5z m0 0"  horiz-adv-x="1024" />

    
    <glyph glyph-name="dizhi" unicode="&#58933;" d="M778.24 635.392m-20.48 0a20.48 20.48 0 1 1 40.96 0 20.48 20.48 0 1 1-40.96 0ZM479.232-8.704c7.68-10.752 19.968-16.896 32.768-16.896 13.312 0 25.088 6.144 32.768 16.896 27.648 37.376 98.816 135.68 162.304 241.152C784.896 363.008 824.32 460.8 824.32 523.264c0 11.264-9.216 20.48-20.48 20.48s-20.48-9.216-20.48-20.48c0-68.608-71.168-237.568-271.36-507.392-200.192 269.312-271.36 438.784-271.36 507.392 0 149.504 121.856 270.848 271.36 270.848 79.36 0 154.624-34.816 206.848-95.232 7.168-8.704 20.48-9.728 28.672-2.048 8.704 7.168 9.728 20.48 2.048 28.672-59.904 69.632-146.432 109.568-237.568 109.568-172.032 0-312.32-139.776-312.32-311.808 0-62.464 39.424-160.256 117.248-290.816 63.488-105.472 134.656-203.776 162.304-241.152zM688.64-40.448h-353.28c-11.264 0-20.48-9.216-20.48-20.48s9.216-20.48 20.48-20.48h353.28c11.264 0 20.48 9.216 20.48 20.48s-9.216 20.48-20.48 20.48zM343.04 527.872c0-93.184 75.776-168.96 168.96-168.96s168.96 75.776 168.96 168.96-75.776 168.96-168.96 168.96-168.96-75.776-168.96-168.96z m296.96 0c0-70.656-57.344-128-128-128s-128 57.344-128 128 57.344 128 128 128 128-57.344 128-128z"  horiz-adv-x="1024" />

    
    <glyph glyph-name="shoutibao1" unicode="&#59069;" d="M636.5 550h-249c-11.4 0-20.7-9.3-20.7-20.8s9.3-20.7 20.7-20.7h249c11.4 0 20.8 9.3 20.8 20.7s-9.4 20.8-20.8 20.8zM802.5 550h-62.2v20.7C740.2 696.6 637.9 799 512 799S283.8 696.6 283.8 570.7V550h-62.2c-75.8 0-134-67.1-123.2-142.1l52.5-367.6c5.8-40.9 40.9-71.3 82.2-71.3H791c41.3 0 76.3 30.4 82.2 71.3l52.5 367.6c10.7 75-47.5 142.1-123.2 142.1z m-11.4-539.5H232.9c-20.5 0-38.2 15.3-41.1 35.6l-6.8 47.4h653.8l-6.8-47.4c-2.8-20.3-20.4-35.6-40.9-35.6z m93.5 403.3L844 129.2V135H180v-5.8l-40.6 284.5c-3.4 23.8 3.7 47.9 19.5 66.1 15.8 18.2 38.6 28.6 62.7 28.6h62.2v-47.3c-12.4-7.2-20.7-20.4-20.7-35.7 0-22.9 18.6-41.5 41.5-41.5s41.5 18.6 41.5 41.5c0 15.3-8.4 28.6-20.7 35.7V570.7c0 103 83.8 186.7 186.7 186.7s186.7-83.8 186.7-186.7v-109.5c-12.4-7.2-20.8-20.4-20.8-35.7 0-22.9 18.6-41.5 41.5-41.5s41.5 18.6 41.5 41.5c0 15.3-8.4 28.6-20.7 35.7v47.3h62.2c24.1 0 46.9-10.4 62.7-28.6 15.8-18.2 22.9-42.3 19.4-66.1z"  horiz-adv-x="1024" />

    
    <glyph glyph-name="xingxing-copy" unicode="&#58885;" d="M1053.04059 508.400468a48.569244 48.569244 0 0 1-39.767394 33.828796L708.814029 587.405023 572.650472 868.109801a48.569244 48.569244 0 0 1-87.806406 0L347.407953 587.405023 42.418553 542.2292640000001a50.478079 50.478079 0 0 1-39.87344-33.828796 49.417615 49.417615 0 0 1 12.513473-51.008311L235.741111 238.51242100000002 183.460244-70.08255499999996a49.311568 49.311568 0 0 1 19.618581-48.675291A47.932965 47.932965 0 0 1 254.511321-122.04528300000004l273.281531 146.131916L800.86229-122.04528300000004a51.538542 51.538542 0 0 1 23.118111-5.938598 48.67529 48.67529 0 0 1 29.056709 9.544175 50.159939 50.159939 0 0 1 19.618581 48.67529L820.374824 238.51242100000002l220.258339 218.243458a50.478079 50.478079 0 0 1 12.513473 51.644589z"  horiz-adv-x="1055" />

    
    <glyph glyph-name="changyongicon-" unicode="&#58905;" d="M597.333333 704l153.386667-136.32v-465.706667A37.973333 37.973333 0 0 0 713.386667 64H310.613333a37.973333 37.973333 0 0 0-37.973333 37.973333V666.026667A37.973333 37.973333 0 0 0 310.613333 704H597.333333m16.213334 42.666667h-302.933334a80.64 80.64 0 0 1-80.64-80.64v-564.053334A80.64 80.64 0 0 1 310.613333 21.33333300000004h402.773334a80.64 80.64 0 0 1 80.64 80.64V586.88L614.186667 746.666667zM597.333333 554.666667a21.333333 21.333333 0 0 0-21.333333 21.333333V725.333333a21.333333 21.333333 0 0 0 42.666667 0v-149.333333a21.333333 21.333333 0 0 0-21.333334-21.333333zM768 554.666667h-170.666667a21.333333 21.333333 0 0 0 0 42.666666h170.666667a21.333333 21.333333 0 0 0 0-42.666666zM663.68 170.66666699999996H338.986667a21.333333 21.333333 0 0 0 0 42.666666h324.693333a21.333333 21.333333 0 0 0 0-42.666666zM606.293333 298.66666699999996H338.986667a21.333333 21.333333 0 0 0 0 42.666666h267.306666a21.333333 21.333333 0 0 0 0-42.666666zM529.92 426.666667h-190.933333a21.333333 21.333333 0 0 0 0 42.666666h192a21.333333 21.333333 0 1 0 0-42.666666z"  horiz-adv-x="1024" />

    
    <glyph glyph-name="daifukuan" unicode="&#58889;" d="M872 511.68V608A72 72 0 0 1 800 680H224A72 72 0 0 1 152 608v-448A72 72 0 0 1 224 88h576A72 72 0 0 1 872 160v96.32a95.488 95.488 0 0 1 48 17.696V160A120 120 0 0 0 800 40H224A120 120 0 0 0 104 160V608A120 120 0 0 0 224 728h576A120 120 0 0 0 920 608v-114.016a95.488 95.488 0 0 1-48 17.696zM512 504h352A88 88 0 0 0 952 416v-64A88 88 0 0 0 864 264H512A88 88 0 0 0 424 352v64A88 88 0 0 0 512 504z m0-48c-22.08 0-40-17.92-40-40v-64c0-22.08 17.92-40 40-40h352c22.08 0 40 17.92 40 40v64c0 22.08-17.92 40-40 40H512zM832 384m-32 0a32 32 0 1 1 64 0 32 32 0 1 1-64 0Z"  horiz-adv-x="1024" />

    
    <glyph glyph-name="xinzeng" unicode="&#58891;" d="M512-76.8a460.8 460.8 0 1 1 0 921.6 460.8 460.8 0 0 1 0-921.6z m0-51.2C229.2224-128 0 101.2224 0 384S229.2224 896 512 896s512-229.2224 512-512-229.2224-512-512-512zM269.4656 358.4a25.6 25.6 0 1 0 0 51.2h485.0688a25.6 25.6 0 1 0 0-51.2H269.4656zM486.4 626.5344a25.6 25.6 0 0 0 51.2 0v-485.0688a25.6 25.6 0 1 0-51.2 0V626.5344z"  horiz-adv-x="1024" />

    
    <glyph glyph-name="shijian" unicode="&#58971;" d="M510.138182 752.407273h-3.258182A365.149091 365.149091 0 0 1 139.636364 382.836364a380.509091 380.509091 0 0 1 376.087272-375.156364h3.490909A365.149091 365.149091 0 0 1 884.363636 377.250909 379.810909 379.810909 0 0 1 510.138182 752.407273zM744.727273 147.549091a319.767273 319.767273 0 0 0-229.236364-93.090909A333.730909 333.730909 0 0 0 186.181818 384 318.603636 318.603636 0 0 0 506.88 705.861818h3.025455A333.265455 333.265455 0 0 0 837.818182 377.018182a318.138182 318.138182 0 0 0-93.090909-229.469091zM605.090909 360.727273h-93.090909v186.181818a23.272727 23.272727 0 0 1-46.545455 0v-209.454546a23.272727 23.272727 0 0 1 23.272728-23.272727h116.363636a23.272727 23.272727 0 0 1 0 46.545455z"  horiz-adv-x="1024" />

    
    <glyph glyph-name="xinxi_huaban" unicode="&#59300;" d="M512 832C262.4 832 64 633.6 64 384s204.8-448 448-448c249.6 0 448 204.8 448 448 0 249.6-198.4 448-448 448z m0-832c-211.2 0-384 172.8-384 384s172.8 384 384 384 384-172.8 384-384-172.8-384-384-384zM544 473.6V633.6c0 19.2-12.8 32-32 32s-32-12.8-32-32v-160c-38.4-19.2-64-51.2-64-89.6 0-51.2 44.8-96 96-96S608 332.8 608 384c0 38.4-25.6 70.4-64 89.6z"  horiz-adv-x="1024" />

    
    <glyph glyph-name="jifenchoujiang_huaban" unicode="&#59301;" d="M531.2 492.8L512 595.2l-19.2-102.4c-19.2-6.4-44.8-12.8-57.6-32-44.8-44.8-44.8-115.2 0-153.6s115.2-44.8 153.6 0c44.8 44.8 44.8 115.2 0 153.6-12.8 19.2-32 25.6-57.6 32z m268.8-396.8L620.8 275.2c-19.2-19.2-44.8-32-70.4-38.4l64-249.6c-32-6.4-70.4-12.8-108.8-12.8s-70.4 6.4-108.8 12.8l64 249.6c-12.8 6.4-38.4 19.2-57.6 38.4l-179.2-179.2c-51.2 51.2-89.6 115.2-102.4 185.6l249.6 64c-6.4 25.6-6.4 51.2 0 76.8l-249.6 64c19.2 64 51.2 128 102.4 185.6l179.2-179.2c19.2 19.2 44.8 32 70.4 38.4l-64 249.6c32 6.4 64 12.8 102.4 12.8s70.4-6.4 108.8-12.8l-64-249.6c19.2-6.4 44.8-19.2 64-38.4l179.2 179.2c51.2-51.2 89.6-115.2 108.8-185.6l-249.6-64c6.4-25.6 6.4-51.2 0-76.8l249.6-64c-19.2-70.4-57.6-134.4-108.8-185.6zM832 704C748.8 787.2 633.6 838.4 512 838.4S275.2 793.6 192 704C102.4 620.8 57.6 505.6 57.6 384s44.8-236.8 134.4-320c83.2-83.2 198.4-134.4 320-134.4s236.8 44.8 320 134.4c83.2 83.2 134.4 198.4 134.4 320s-44.8 236.8-134.4 320"  horiz-adv-x="1024" />

    
    <glyph glyph-name="lipinzhuanqu_huaban" unicode="&#59302;" d="M134.4 300.8v-288c0-44.8 38.4-83.2 83.2-83.2h249.6V345.6H179.2c-19.2 0-44.8-19.2-44.8-44.8z m832 224c0 19.2-19.2 38.4-38.4 38.4h-121.6c44.8 32 83.2 83.2 83.2 140.8 0 51.2-38.4 121.6-128 121.6C640 832 556.8 716.8 512 646.4 467.2 716.8 377.6 832 262.4 832c-89.6 0-128-70.4-128-121.6 0-57.6 32-108.8 76.8-140.8H96c-19.2 0-38.4-19.2-38.4-38.4v-102.4c0-12.8 6.4-19.2 19.2-19.2h396.8V524.8s0 38.4 38.4 38.4 38.4-38.4 38.4-38.4v-121.6h396.8c12.8 0 19.2 6.4 19.2 19.2V524.8zM364.8 608c-70.4 0-147.2 32-147.2 102.4 0 32 25.6 38.4 64 38.4 76.8 0 121.6-76.8 166.4-140.8H364.8c0 6.4 0 0 0 0z m288 0H569.6c44.8 64 89.6 140.8 166.4 140.8 38.4 0 64-6.4 64-38.4 0-70.4-76.8-102.4-147.2-102.4z m185.6-262.4H550.4V-64h249.6c44.8 0 83.2 38.4 83.2 83.2V300.8c0 25.6-19.2 44.8-44.8 44.8z"  horiz-adv-x="1024" />

    
    <glyph glyph-name="jifenduiquan_huaban" unicode="&#59303;" d="M569.6 422.4H473.6c-19.2-25.6-44.8-44.8-70.4-64h230.4c-25.6 12.8-51.2 38.4-64 64zM83.2 832v-896l147.2 96 134.4-102.4 140.8 102.4 160-102.4 121.6 102.4 160-96V832C947.2 838.4 83.2 838.4 83.2 832z m697.6-524.8c-6.4-12.8-12.8-25.6-12.8-32-32 12.8-64 25.6-83.2 38.4 0-38.4-6.4-70.4-6.4-96 0-44.8-32-70.4-96-70.4H492.8c-6.4 19.2-6.4 38.4-12.8 51.2h89.6c32 0 51.2 12.8 51.2 32 0 6.4 0 25.6 6.4 44.8v25.6H473.6c-6.4-83.2-70.4-140.8-192-166.4-6.4 12.8-19.2 32-32 51.2 108.8 19.2 160 57.6 166.4 115.2h-51.2v25.6c-25.6-19.2-64-38.4-102.4-57.6 0 0 0 6.4-6.4 12.8-12.8 25.6-19.2 44.8-25.6 44.8 76.8 32 128 64 166.4 96H243.2v51.2h198.4c6.4 12.8 12.8 32 19.2 51.2H262.4V576h108.8c-19.2 25.6-38.4 51.2-64 70.4l51.2 25.6 44.8-44.8 25.6-25.6-51.2-25.6h96c6.4 38.4 12.8 76.8 19.2 108.8h64c-6.4-51.2-12.8-83.2-19.2-108.8h108.8l-38.4 25.6c19.2 12.8 38.4 32 64 64l6.4 6.4 51.2-25.6-19.2-19.2c-19.2-19.2-32-38.4-51.2-51.2h102.4v-51.2H524.8c0-19.2-12.8-38.4-19.2-51.2h281.6v-51.2H633.6c38.4-38.4 89.6-70.4 160-89.6 0-6.4-6.4-6.4-12.8-25.6z"  horiz-adv-x="1024" />

    
    <glyph glyph-name="shijian_huaban" unicode="&#59307;" d="M512 832C262.4 832 64 633.6 64 384s198.4-448 448-448 448 198.4 448 448-198.4 448-448 448z m0-844.8c-217.6 0-396.8 179.2-396.8 396.8 0 217.6 179.2 396.8 396.8 396.8 217.6 0 396.8-179.2 396.8-396.8 0-217.6-179.2-396.8-396.8-396.8zM710.4 326.4H512v256c0 12.8-12.8 25.6-25.6 25.6s-25.6-12.8-25.6-25.6v-307.2h256c12.8 0 25.6 12.8 25.6 25.6-6.4 12.8-19.2 25.6-32 25.6z"  horiz-adv-x="1024" />

    
    <glyph glyph-name="dingwei_huaban" unicode="&#59308;" d="M512 620.8c-89.6 0-160-70.4-160-160S422.4 300.8 512 300.8s160 70.4 160 160c0 44.8-19.2 83.2-44.8 108.8-32 32-70.4 51.2-115.2 51.2z m0-256c-51.2 0-96 44.8-96 96 0 25.6 12.8 51.2 25.6 70.4 19.2 19.2 44.8 32 70.4 32 51.2 0 96-44.8 96-96 0-57.6-44.8-102.4-96-102.4zM780.8 742.4C640 896 396.8 896 249.6 755.2l-6.4-6.4c-147.2-153.6-147.2-403.2 0-556.8L512-89.6l268.8 275.2c153.6 160 153.6 403.2 0 556.8z m-38.4-518.4L512-12.8l-230.4 236.8c-128 134.4-128 339.2 0 473.6 121.6 128 326.4 128 454.4 6.4l6.4-6.4c128-128 128-339.2 0-473.6z"  horiz-adv-x="1024" />

    
    <glyph glyph-name="guwen_huaban" unicode="&#59309;" d="M800 275.2c-12.8 12.8-32 12.8-38.4 0-12.8-12.8-12.8-32 0-38.4 76.8-70.4 121.6-166.4 121.6-268.8 0-12.8 12.8-25.6 25.6-25.6s25.6 12.8 25.6 25.6c0 108.8-51.2 224-134.4 307.2zM640 800C524.8 870.4 364.8 832 294.4 710.4S262.4 435.2 384 364.8c-172.8-57.6-294.4-217.6-294.4-403.2 0-12.8 12.8-25.6 25.6-25.6s25.6 12.8 25.6 25.6c0 204.8 166.4 364.8 364.8 364.8 89.6 0 172.8 44.8 217.6 121.6 76.8 121.6 38.4 281.6-83.2 352zM512 384C403.2 384 313.6 473.6 313.6 582.4S403.2 780.8 512 780.8c108.8 0 198.4-89.6 198.4-198.4S620.8 384 512 384z"  horiz-adv-x="1024" />

    


  </font>
</defs>
</svg>
